<?xml version="1.0" standalone="no"?>
<!DOCTYPE svg PUBLIC "-//W3C//DTD SVG 1.1//EN" "http://www.w3.org/Graphics/SVG/1.1/DTD/svg11.dtd" >
<svg xmlns="http://www.w3.org/2000/svg" xmlns:xlink="http://www.w3.org/1999/xlink" version="1.1">
<metadata></metadata>
<defs>
<font id="uniform_roundedblack" horiz-adv-x="620" >
<font-face units-per-em="1000" ascent="750" descent="-250" />
<missing-glyph horiz-adv-x="292" />
<glyph unicode="&#x2e;&#x2e;&#x2e;" horiz-adv-x="1060" d="M50 100q0 46 32 78t78 32t78 -32t32 -78t-32 -78t-78 -32t-78 32t-32 78zM420 100q0 46 32 78t78 32t78 -32t32 -78t-32 -78t-78 -32t-78 32t-32 78zM790 100q0 46 32 78t78 32t78 -32t32 -78t-32 -78t-78 -32t-78 32t-32 78z" />
<glyph horiz-adv-x="0" />
<glyph horiz-adv-x="333" />
<glyph unicode=" "  horiz-adv-x="292" />
<glyph unicode="&#x09;" horiz-adv-x="292" />
<glyph unicode="&#xa0;" horiz-adv-x="292" />
<glyph unicode="!" horiz-adv-x="340" d="M69 600q-4 44 25.5 74.5t75.5 30.5t75.5 -30.5t25.5 -74.5l-25 -272q-3 -35 -23.5 -56.5t-52.5 -21.5t-52.5 21.5t-23.5 56.5zM60 100q0 46 32 78t78 32t78 -32t32 -78t-32 -78t-78 -32t-78 32t-32 78z" />
<glyph unicode="&#x22;" horiz-adv-x="450" d="M120 705q32 0 51 -19.5t19 -50.5v-200q0 -31 -19 -50.5t-51 -19.5t-51 19.5t-19 50.5v200q0 31 19 50.5t51 19.5zM330 705q32 0 51 -19.5t19 -50.5v-200q0 -31 -19 -50.5t-51 -19.5t-51 19.5t-19 50.5v200q0 31 19 50.5t51 19.5z" />
<glyph unicode="#" d="M35 193q0 23 14 37.5t38 14.5h52l22 110h-34q-24 0 -38 14.5t-14 38.5q0 23 14 37.5t38 14.5h55l20 98q10 47 56 47q25 0 40 -15t15 -40q0 -11 -2 -20l-14 -70h90l20 98q5 21 20 34t36 13q25 0 40 -15t15 -40q0 -11 -2 -20l-14 -70h31q24 0 38 -14.5t14 -37.5 q0 -24 -14 -38.5t-38 -14.5h-52l-22 -110h34q24 0 38 -14.5t14 -37.5q0 -24 -14 -38.5t-38 -14.5h-55l-18 -91q-5 -24 -20 -39t-37 -15q-26 0 -41 15.5t-15 41.5q0 8 3 22l13 66h-90l-18 -91q-5 -24 -20 -39t-37 -15q-26 0 -41 15.5t-15 41.5q0 8 3 22l13 66h-31 q-24 0 -38 14.5t-14 38.5zM254 245h90l22 110h-90z" />
<glyph unicode="$" horiz-adv-x="570" d="M40 151q0 35 22 57t58 22q37 0 61 -26q55 -59 109 -59q25 0 40 12t15 32q0 24 -27.5 47.5t-99.5 59.5q-152 77 -152 212q0 75 49.5 126.5t130.5 65.5v55q0 22 14 36t36 14t36 -14t14 -36v-54q81 -10 142 -66q32 -29 32 -67q0 -35 -21.5 -57t-56.5 -22q-33 0 -62 29 q-35 37 -80 37q-22 0 -35.5 -11t-13.5 -29q0 -23 21 -41.5t79 -48.5q179 -92 179 -223q0 -79 -50.5 -133t-133.5 -69v-54q0 -23 -14 -37t-36 -14t-36 14t-14 37v51q-64 7 -112.5 35.5t-69.5 57.5q-24 33 -24 61z" />
<glyph unicode="%" horiz-adv-x="780" d="M201 296q-69 0 -115 44t-46 112t47 113t116 45t115 -44t46 -112t-47 -113t-116 -45zM196 -5q-20 0 -32.5 13t-12.5 33q0 17 14 36l377 503q19 25 42 25q20 0 32.5 -13t12.5 -33q0 -19 -13 -35l-379 -505q-18 -24 -41 -24zM202 401q22 0 36 14.5t14 37.5t-14 37.5 t-36 14.5t-36 -14.5t-14 -37.5t14 -37.5t36 -14.5zM577 -10q-69 0 -115 44t-46 112t47 113t116 45t115 -44t46 -112t-47 -113t-116 -45zM578 95q22 0 36 14.5t14 37.5t-14 37.5t-36 14.5t-36 -14.5t-14 -37.5t14 -37.5t36 -14.5z" />
<glyph unicode="&#x26;" horiz-adv-x="696" d="M30 193q0 61 31.5 110.5t104.5 93.5q-61 75 -61 143q0 71 58 120.5t155 49.5q98 0 152.5 -50t54.5 -118q0 -101 -124 -178l66 -71l77 88q21 24 54 24q31 0 49.5 -18.5t18.5 -49.5q0 -26 -23 -55l-78 -95l63 -68q23 -25 23 -55q0 -31 -19 -50t-50 -19q-34 0 -55 23l-58 60 q-51 -50 -98.5 -69t-112.5 -19q-92 0 -160 58.5t-68 144.5zM270 534q0 -28 44 -76q61 31 61 72q0 21 -14 35.5t-39 14.5q-23 0 -37.5 -14t-14.5 -32zM200 213q0 -32 22 -52.5t56 -20.5q46 0 91 43l-111 116q-58 -41 -58 -86z" />
<glyph unicode="'" horiz-adv-x="240" d="M120 705q32 0 51 -19.5t19 -50.5v-200q0 -31 -19 -50.5t-51 -19.5t-51 19.5t-19 50.5v200q0 31 19 50.5t51 19.5z" />
<glyph unicode="(" horiz-adv-x="427" d="M50 347q0 83 24.5 157.5t54.5 119.5t70 83.5t57.5 50t29.5 18.5q24 14 46 14q33 0 54 -21t21 -54q0 -35 -38 -69q-20 -18 -29 -26.5t-35 -39.5t-40 -59t-27 -74.5t-13 -96.5q0 -58 14 -108t39 -85.5t42.5 -55t39.5 -39.5q5 -4 7 -6q40 -37 40 -70t-21 -54.5t-54 -21.5 q-25 0 -52 17q-199 126 -226 353q-4 33 -4 67z" />
<glyph unicode=")" horiz-adv-x="427" d="M377 353q0 -83 -24.5 -157.5t-54.5 -119.5t-70 -83.5t-57.5 -50t-29.5 -18.5q-24 -14 -46 -14q-33 0 -54 21t-21 54q0 35 38 69q20 18 29 26.5t35 39.5t40 59t27 74.5t13 96.5q0 58 -14 108t-39 85.5t-42.5 55t-39.5 39.5q-5 4 -7 6q-40 37 -40 70t21 54.5t54 21.5 q25 0 52 -17q199 -126 226 -353q4 -33 4 -67z" />
<glyph unicode="*" horiz-adv-x="504" d="M50 541q0 26 16.5 42t42.5 16q15 0 35 -9l56 -25l-6 75q-2 27 13.5 46t44.5 19q31 0 45.5 -19t12.5 -46l-7 -75l57 25q20 9 35 9q26 0 42.5 -16t16.5 -41q0 -23 -15 -39t-40 -21l-65 -14l47 -53q18 -20 18 -42q0 -26 -16 -42t-42 -16q-34 0 -54 33l-35 60l-35 -60 q-18 -33 -54 -33q-26 0 -42 16t-16 42q0 22 17 42l47 53l-72 16q-21 5 -34 20t-13 37z" />
<glyph unicode="+" d="M505 425q31 0 50.5 -19.5t19.5 -50.5t-19.5 -50.5t-50.5 -19.5h-123v-128q0 -32 -20 -52t-52 -20t-52 20t-20 52v128h-123q-31 0 -50.5 19.5t-19.5 50.5t19.5 50.5t50.5 19.5h123v129q0 32 20 51.5t52 19.5t52 -19.5t20 -51.5v-129h123z" />
<glyph unicode="," horiz-adv-x="300" d="M47 -62q0 25 16 180q4 39 27.5 63t59.5 24q38 0 62.5 -24t24.5 -63q0 -19 -43 -189q-17 -64 -73 -64q-32 0 -53 20.5t-21 52.5z" />
<glyph unicode="-" horiz-adv-x="420" d="M295 435q35 0 57.5 -22.5t22.5 -57.5t-22.5 -57.5t-57.5 -22.5h-170q-35 0 -57.5 22.5t-22.5 57.5t22.5 57.5t57.5 22.5h170z" />
<glyph unicode="." horiz-adv-x="320" d="M50 100q0 46 32 78t78 32t78 -32t32 -78t-32 -78t-78 -32t-78 32t-32 78z" />
<glyph unicode="/" horiz-adv-x="520" d="M10 -18q0 20 11 40l360 720q21 43 64 43q29 0 47 -18.5t18 -47.5q0 -21 -10 -39l-363 -725q-19 -40 -61 -40q-30 0 -48 18.5t-18 48.5z" />
<glyph unicode="0" d="M50 447q0 122 74.5 192.5t188.5 70.5t185.5 -67.5t71.5 -189.5v-200q0 -122 -74.5 -192.5t-188.5 -70.5t-185.5 67.5t-71.5 189.5v200zM230 235q0 -35 22.5 -57.5t57.5 -22.5t57.5 22.5t22.5 57.5v230q0 35 -22.5 57.5t-57.5 22.5t-57.5 -22.5t-22.5 -57.5v-230z" />
<glyph unicode="1" horiz-adv-x="501" d="M20 493q2 42 38 66l176 122q34 24 71 24q46 0 76 -30t30 -76v-514q0 -40 -25 -65t-65 -25t-65 25t-25 65v407l-93 -59q-21 -14 -44 -14q-33 1 -53 21.5t-21 52.5z" />
<glyph unicode="2" horiz-adv-x="570" d="M40 94q0 42 38 78l197 188q40 39 55 63.5t15 56.5q0 30 -20.5 50t-54.5 20q-41 0 -87 -46q-30 -32 -65 -32t-56.5 21.5t-21.5 56.5q0 26 23 58q17 23 40 42.5t73.5 39.5t111.5 20q103 0 170 -59.5t67 -147.5q0 -72 -30 -125.5t-100 -117.5l-115 -105h168q34 0 55.5 -21.5 t21.5 -55.5t-21.5 -56t-55.5 -22h-314q-41 0 -67.5 26.5t-26.5 67.5z" />
<glyph unicode="3" horiz-adv-x="557" d="M20 142q0 35 21.5 56t56.5 21q18 0 37 -10.5t29 -24.5q30 -39 83 -39q38 0 61.5 21t23.5 51q0 33 -24.5 53t-75.5 20h-7q-31 0 -49.5 18.5t-18.5 49.5q0 30 18.5 48.5t49.5 18.5h7q80 0 80 65q0 30 -20 47.5t-50 17.5q-34 0 -63 -31q-28 -28 -60 -28q-33 0 -53.5 20.5 t-20.5 53.5q0 27 22 56q28 35 76.5 59.5t113.5 24.5q98 0 166.5 -53.5t68.5 -138.5q0 -96 -89 -154q109 -54 109 -168q0 -93 -73.5 -149.5t-187.5 -56.5q-131 0 -207 90q-24 28 -24 62z" />
<glyph unicode="4" d="M20 242q0 36 23 68l246 347q33 48 94 48q49 0 80.5 -31.5t31.5 -80.5v-313h36q31 0 50 -19.5t19 -50.5t-19 -50.5t-50 -19.5h-36v-60q0 -38 -23.5 -61.5t-61.5 -23.5t-61.5 23.5t-23.5 61.5v60h-201q-46 0 -75 28.5t-29 73.5zM173 280h152v213z" />
<glyph unicode="5" horiz-adv-x="595" d="M60 133q0 36 22 58.5t58 22.5q29 0 65 -27q16 -12 25 -17.5t22.5 -10t29.5 -4.5q41 0 64.5 23.5t23.5 61.5q0 30 -20.5 52.5t-56.5 22.5q-26 0 -53 -18q-40 -27 -72 -27q-44 0 -71 27.5t-27 72.5v235q0 41 27 68t68 27h278q34 0 55.5 -21.5t21.5 -55.5q0 -35 -21.5 -56.5 t-55.5 -21.5h-213v-103q43 28 98 28q100 0 161 -65t61 -160q0 -112 -73.5 -183.5t-191.5 -71.5q-109 0 -193 76q-13 12 -22.5 31t-9.5 36z" />
<glyph unicode="6" d="M45 242q0 112 77 216l156 210q27 37 72 37q36 0 58 -22.5t22 -58.5q0 -30 -26 -63l-84 -105q14 4 33 4q91 0 156.5 -62t65.5 -156q0 -110 -78 -181t-190 -71q-108 0 -185 71.5t-77 180.5zM225 240q0 -36 23 -60.5t62 -24.5t62 24.5t23 60.5t-23 60.5t-62 24.5t-62 -24.5 t-23 -60.5z" />
<glyph unicode="7" horiz-adv-x="540" d="M25 620q0 35 22.5 57.5t57.5 22.5h316q42 0 68 -25.5t26 -66.5q0 -23 -12 -49l-230 -507q-26 -57 -83 -57q-38 0 -62.5 24.5t-24.5 62.5q0 22 12 46l193 412h-203q-35 0 -57.5 22.5t-22.5 57.5z" />
<glyph unicode="8" d="M70 507q0 89 69 146t174 57t171 -54.5t66 -142.5q0 -80 -68 -138q93 -64 93 -162q0 -96 -76 -159.5t-192 -63.5t-189 60.5t-73 156.5q0 98 92 163q-67 56 -67 137zM245 495q0 -29 18 -47t47 -18t47 18t18 47t-18 47t-47 18t-47 -18t-18 -47zM225 225q0 -37 23.5 -61 t61.5 -24t61.5 24t23.5 61t-23.5 61t-61.5 24t-61.5 -24t-23.5 -61z" />
<glyph unicode="9" d="M575 458q0 -112 -77 -216l-156 -210q-27 -37 -72 -37q-36 0 -58 22.5t-22 58.5q0 30 26 63l84 105q-14 -4 -33 -4q-91 0 -156.5 62t-65.5 156q0 110 78 181t190 71q108 0 185 -71.5t77 -180.5zM395 460q0 36 -23 60.5t-62 24.5t-62 -24.5t-23 -60.5t23 -60.5t62 -24.5 t62 24.5t23 60.5z" />
<glyph unicode=":" horiz-adv-x="320" d="M160 310q-46 0 -78 32t-32 78t32 78t78 32t78 -32t32 -78t-32 -78t-78 -32zM160 -10q-46 0 -78 32t-32 78t32 78t78 32t78 -32t32 -78t-32 -78t-78 -32z" />
<glyph unicode=";" horiz-adv-x="320" d="M50 420q0 46 32 78t78 32t78 -32t32 -78t-32 -78t-78 -32t-78 32t-32 78zM47 -62q0 25 16 180q4 39 27.5 63t59.5 24q38 0 62.5 -24t24.5 -63q0 -19 -43 -189q-17 -64 -73 -64q-32 0 -53 20.5t-21 52.5z" />
<glyph unicode="&#x3c;" d="M504 91q-19 0 -37 8l-339 147q-83 37 -83 109q0 74 83 109l343 148q20 8 35 8q31 0 50 -19t19 -50q0 -49 -50 -68l-318 -126l314 -123q23 -10 38.5 -28.5t15.5 -41.5q0 -32 -20 -52.5t-51 -20.5z" />
<glyph unicode="=" d="M115 385q-31 0 -50.5 19.5t-19.5 50.5t19.5 50.5t50.5 19.5h390q31 0 50.5 -19.5t19.5 -50.5t-19.5 -50.5t-50.5 -19.5h-390zM505 305q31 0 50.5 -19.5t19.5 -50.5t-19.5 -50.5t-50.5 -19.5h-390q-31 0 -50.5 19.5t-19.5 50.5t19.5 50.5t50.5 19.5h390z" />
<glyph unicode="&#x3e;" d="M116 620q19 0 37 -8l339 -147q83 -37 83 -109q0 -74 -83 -109l-343 -148q-20 -8 -35 -8q-31 0 -50 19t-19 50q0 49 50 68l318 126l-314 123q-23 10 -38.5 28.5t-15.5 41.5q0 32 20 52.5t51 20.5z" />
<glyph unicode="?" horiz-adv-x="527" d="M250 250q-30 0 -48.5 18t-18.5 46q0 25 18.5 47t40.5 36t40.5 36.5t18.5 49.5q0 22 -15.5 38.5t-39.5 16.5q-39 0 -70 -34q-28 -31 -66 -31q-36 0 -58 23t-22 59q0 31 22 59q74 96 208 96q96 0 161.5 -57.5t65.5 -139.5q0 -41 -12.5 -75t-39.5 -63.5t-46 -45.5t-55 -42 q-52 -37 -84 -37zM247 -10q-46 0 -78 32t-32 78t32 78t78 32t78 -32t32 -78t-32 -78t-78 -32z" />
<glyph unicode="@" horiz-adv-x="976" d="M490 710q192 0 319 -123.5t127 -306.5q0 -127 -68.5 -219t-176.5 -94q-68 -1 -105 37.5t-36 104.5q-46 -34 -111 -34q-92 0 -146 66t-41 163q12 87 75 138t144 51q72 0 112 -40q22 35 62 35q36 0 55.5 -23.5t14.5 -60.5l-39 -276q-3 -23 7.5 -36.5t31.5 -13.5 q37 0 71 55.5t34 135.5q0 154 -91.5 243.5t-240.5 89.5q-142 0 -237 -93.5t-95 -230.5q0 -135 95 -227t237 -92q15 0 31.5 1.5t20.5 1.5q24 0 38 -13t14 -35q0 -41 -44 -52q-22 -6 -62 -6q-192 0 -319 120.5t-127 299.5q0 182 129.5 308t320.5 126zM549 277q5 33 -15.5 57 t-53.5 24t-53 -18t-25 -49q-5 -33 15.5 -57t53.5 -24q32 0 52.5 17.5t25.5 49.5z" />
<glyph unicode="A" horiz-adv-x="694" d="M10 85q0 22 13 52l196 472q40 96 131 96t130 -96l190 -461q14 -34 14 -57q0 -42 -26.5 -69t-68.5 -27q-68 0 -94 73l-19 52h-266l-18 -51q-27 -74 -90 -74q-40 0 -66 25.5t-26 64.5zM265 270h157l-78 216z" />
<glyph unicode="B" horiz-adv-x="690" d="M70 95v510q0 41 27 68t68 27h233q103 0 165 -50.5t62 -131.5q0 -99 -91 -153q57 -22 89 -66.5t32 -102.5q0 -84 -66.5 -140t-171.5 -56h-252q-41 0 -68 27t-27 68zM260 425h95q38 0 59 18.5t21 46.5t-21 46.5t-59 18.5h-95v-130zM260 145h120q41 0 63 21t22 52t-22 51.5 t-63 20.5h-120v-145z" />
<glyph unicode="C" horiz-adv-x="699" d="M40 347q0 152 107.5 257.5t265.5 105.5q121 0 205 -55q52 -34 52 -85q0 -39 -25.5 -64.5t-62.5 -25.5q-32 0 -62 21q-49 34 -110 34q-78 0 -129 -53t-51 -132t51 -132t129 -53q65 0 116 40q31 25 65 25q39 0 63.5 -24.5t24.5 -62.5q0 -41 -33 -72q-91 -81 -239 -81 q-158 0 -262.5 102.5t-104.5 254.5z" />
<glyph unicode="D" horiz-adv-x="760" d="M70 95v510q0 41 27 68t68 27h168q169 0 278 -98.5t109 -248.5t-112 -251.5t-281 -101.5h-162q-41 0 -68 27t-27 68zM260 165h75q85 0 140 52t55 133t-55 133t-140 52h-75v-370z" />
<glyph unicode="E" horiz-adv-x="650" d="M70 95v510q0 41 27 68t68 27h358q36 0 59 -23t23 -59q0 -37 -23 -60t-59 -23h-263v-100h218q34 0 55.5 -21.5t21.5 -55.5q0 -35 -21.5 -56.5t-55.5 -21.5h-218v-115h273q36 0 59 -23t23 -59q0 -37 -23 -60t-59 -23h-368q-41 0 -68 27t-27 68z" />
<glyph unicode="F" horiz-adv-x="610" d="M70 90v515q0 41 27 68t68 27h348q36 0 59 -23t23 -59q0 -37 -23 -60t-59 -23h-253v-130h205q35 0 57.5 -22.5t22.5 -57.5t-22.5 -57.5t-57.5 -22.5h-205v-155q0 -41 -27 -68t-68 -27t-68 27t-27 68z" />
<glyph unicode="G" horiz-adv-x="785" d="M407 -10q-158 0 -262.5 102.5t-104.5 254.5t107.5 257.5t265.5 105.5q121 0 203 -53q50 -33 50 -82q0 -38 -26.5 -64.5t-65.5 -26.5q-26 0 -55 17q-56 34 -109 34q-79 0 -129.5 -53t-50.5 -134t51 -134.5t129 -53.5q122 0 149 100h-96q-30 0 -49 19t-19 49q0 29 19 48 t49 19h213q35 0 57 -22t22 -55q0 -62 -25.5 -121t-70 -105t-110.5 -74t-142 -28z" />
<glyph unicode="H" horiz-adv-x="770" d="M605 705q41 0 68 -27t27 -68v-520q0 -41 -27 -68t-68 -27t-68 27t-27 68v185h-250v-185q0 -41 -27 -68t-68 -27t-68 27t-27 68v520q0 41 27 68t68 27t68 -27t27 -68v-165h250v165q0 41 27 68t68 27z" />
<glyph unicode="I" horiz-adv-x="345" d="M173 705q42 0 69.5 -27t27.5 -70v-516q0 -43 -27.5 -70t-69.5 -27q-43 0 -70.5 27t-27.5 70v516q0 43 27.5 70t70.5 27z" />
<glyph unicode="J" horiz-adv-x="498" d="M10 87q0 38 24.5 62.5t64.5 24.5q8 0 22.5 -2t21.5 -2q46 0 73 31t27 84v323q0 43 27.5 70t70.5 27q42 0 69.5 -27t27.5 -70v-335q0 -129 -77 -206t-201 -77q-48 0 -81 10q-69 22 -69 87z" />
<glyph unicode="K" horiz-adv-x="665" d="M70 90v520q0 41 27 68t68 27t68 -27t27 -68v-223l217 276q31 42 76 42q37 0 61 -24t24 -62q0 -35 -26 -63l-162 -187l183 -227q22 -27 22 -60q0 -38 -24.5 -62.5t-61.5 -24.5q-45 0 -75 39l-234 299v-243q0 -41 -27 -68t-68 -27t-68 27t-27 68z" />
<glyph unicode="L" horiz-adv-x="590" d="M70 95v515q0 41 27 68t68 27t68 -27t27 -68v-440h240q38 0 61.5 -24t23.5 -61t-23.5 -61t-61.5 -24h-335q-41 0 -68 27t-27 68z" />
<glyph unicode="M" horiz-adv-x="890" d="M70 87v500q0 51 33.5 84.5t84.5 33.5q74 0 114 -79l148 -292l155 304q34 67 104 67q48 0 79.5 -31.5t31.5 -79.5v-507q0 -40 -25.5 -66t-65.5 -26q-41 0 -66.5 25.5t-25.5 66.5v294l-108 -214q-32 -62 -83 -62q-52 0 -84 62l-109 214v-294q0 -40 -25.5 -66t-65.5 -26 t-66 25.5t-26 66.5z" />
<glyph unicode="N" horiz-adv-x="790" d="M70 88v494q0 53 35 88t89 35q67 0 108 -62l233 -344v314q0 41 26 66.5t67 25.5q40 0 66 -25.5t26 -66.5v-502q0 -50 -33 -83t-83 -33q-64 0 -107 62l-242 358v-327q0 -41 -25.5 -67t-66.5 -26t-67 26t-26 67z" />
<glyph unicode="O" horiz-adv-x="820" d="M40 347q0 152 107.5 257.5t265.5 105.5t262.5 -102.5t104.5 -254.5t-107.5 -257.5t-265.5 -105.5t-262.5 102.5t-104.5 254.5zM230 350q0 -79 51 -132t129 -53t129 53t51 132t-51 132t-129 53t-129 -53t-51 -132z" />
<glyph unicode="P" horiz-adv-x="690" d="M383 700q123 0 197.5 -67t74.5 -178q0 -110 -77.5 -180t-200.5 -70h-117v-115q0 -41 -27 -68t-68 -27t-68 27t-27 68v515q0 41 27 68t68 27h218zM365 360q45 0 72.5 25t27.5 65t-27.5 65t-72.5 25h-105v-180h105z" />
<glyph unicode="Q" horiz-adv-x="820" d="M40 347q0 152 107.5 257.5t265.5 105.5t262.5 -102.5t104.5 -254.5q0 -92 -42.5 -170.5t-116.5 -128.5l41 -57q15 -21 15 -51q0 -38 -24.5 -62t-61.5 -24q-47 0 -71 35l-67 98q-22 -3 -46 -3q-158 0 -262.5 102.5t-104.5 254.5zM230 350q0 -79 51 -132t129 -53t129 53 t51 132t-51 132t-129 53t-129 -53t-51 -132z" />
<glyph unicode="R" horiz-adv-x="690" d="M165 -5q-41 0 -68 27t-27 68v515q0 41 27 68t68 27h228q117 0 189.5 -64.5t72.5 -170.5q0 -71 -35 -124t-96 -82l82 -110q24 -31 24 -63q0 -40 -25 -65.5t-65 -25.5q-47 0 -75 38l-140 192h-65v-135q0 -41 -27 -68t-68 -27zM260 370h110q45 0 70 23t25 62t-25 62t-70 23 h-110v-170z" />
<glyph unicode="S" horiz-adv-x="584" d="M20 131q0 36 22 58t59 22q28 0 59 -23q61 -45 129 -45q26 0 43 12.5t17 31.5q0 25 -30 48t-116 60q-159 69 -159 207q0 91 70 149.5t183 58.5q105 0 184 -53q46 -31 46 -74q0 -35 -21.5 -57.5t-54.5 -22.5q-26 0 -58 22q-45 32 -97 32q-27 0 -42 -11.5t-15 -28.5 q0 -24 22 -41.5t89 -46.5q194 -84 194 -221q0 -93 -73.5 -155.5t-189.5 -62.5q-136 0 -225 73q-36 28 -36 68z" />
<glyph unicode="T" horiz-adv-x="590" d="M503 700q36 0 59 -23t23 -59q0 -37 -23 -60t-59 -23h-113v-445q0 -41 -27 -68t-68 -27t-68 27t-27 68v445h-112q-37 0 -60 23t-23 60q0 36 23 59t60 23h415z" />
<glyph unicode="U" horiz-adv-x="740" d="M587 704q40 0 66.5 -26.5t26.5 -67.5v-317q0 -137 -86.5 -220t-226.5 -83t-223.5 80t-83.5 217v323q0 42 27 69t69 27t69.5 -27t27.5 -69v-315q0 -60 32.5 -95t87.5 -35t87.5 35t32.5 95v315q0 40 26.5 67t67.5 27z" />
<glyph unicode="V" horiz-adv-x="685" d="M10 607q0 43 28 70.5t71 27.5q69 0 97 -77l140 -385l143 395q25 67 92 67q41 0 67.5 -26t26.5 -67q0 -23 -13 -53l-188 -460q-43 -104 -133 -104t-133 104l-189 463q-9 22 -9 45z" />
<glyph unicode="W" horiz-adv-x="973" d="M10 607q0 43 27.5 70.5t70.5 27.5q33 0 59 -19.5t35 -49.5l104 -346l99 347q9 31 32 49.5t53 18.5t53.5 -17.5t31.5 -47.5l100 -350l106 350q9 30 33 47.5t56 17.5q40 0 66.5 -26.5t26.5 -66.5q0 -19 -7 -38l-169 -502q-11 -34 -40 -55.5t-65 -21.5q-38 0 -66.5 22.5 t-39.5 58.5l-91 308l-89 -305q-11 -39 -39.5 -61.5t-67.5 -22.5q-37 0 -65.5 21t-39.5 56l-167 496q-7 19 -7 39z" />
<glyph unicode="X" horiz-adv-x="635" d="M10 79q0 33 22 60l174 214l-160 200q-23 30 -23 63q0 39 25.5 64t65.5 25q46 0 76 -40l133 -177l140 184q25 33 69 33q39 0 62.5 -23t23.5 -61q0 -33 -19 -57l-166 -205l167 -210q25 -30 25 -65q0 -39 -25.5 -64t-65.5 -25q-46 0 -76 40l-142 189l-143 -185 q-33 -44 -77 -44q-39 0 -62.5 23t-23.5 61z" />
<glyph unicode="Y" horiz-adv-x="619" d="M10 613q0 41 26 66.5t67 25.5q54 0 82 -48l128 -225l128 226q27 47 80 47q39 0 63.5 -24.5t24.5 -64.5q0 -27 -15 -52l-191 -314v-160q0 -41 -27 -68t-68 -27t-68 27t-27 68v160l-188 309q-15 25 -15 54z" />
<glyph unicode="Z" horiz-adv-x="660" d="M20 95q0 40 29 73l321 372h-250q-35 0 -57.5 22.5t-22.5 57.5t22.5 57.5t57.5 22.5h413q43 0 70 -27t27 -70q0 -39 -26 -68l-324 -375h271q35 0 57 -22.5t22 -57.5t-22 -57.5t-57 -22.5h-434q-43 0 -70 27t-27 68z" />
<glyph unicode="[" horiz-adv-x="435" d="M70 8v684q0 39 24.5 63.5t63.5 24.5h178q33 0 53.5 -21t20.5 -54t-20.5 -54t-53.5 -21h-91v-560h91q33 0 53.5 -21t20.5 -54t-20.5 -54t-53.5 -21h-178q-39 0 -63.5 24.5t-24.5 63.5z" />
<glyph unicode="\" horiz-adv-x="520" d="M510 -18q0 -30 -18 -48.5t-48 -18.5q-42 0 -61 40l-363 725q-10 18 -10 39q0 29 18 47.5t47 18.5q43 0 64 -43l360 -720q11 -20 11 -40z" />
<glyph unicode="]" horiz-adv-x="435" d="M365 692v-684q0 -39 -24.5 -63.5t-63.5 -24.5h-178q-33 0 -53.5 21t-20.5 54t20.5 54t53.5 21h91v560h-91q-33 0 -53.5 21t-20.5 54t20.5 54t53.5 21h178q39 0 63.5 -24.5t24.5 -63.5z" />
<glyph unicode="^" horiz-adv-x="549" d="M50 388q0 18 12 42l106 200q39 75 107 75q65 0 106 -75l106 -202q12 -24 12 -41q0 -31 -20.5 -51.5t-50.5 -20.5q-47 0 -70 47l-83 182l-80 -177q-24 -52 -71 -52q-32 0 -53 21t-21 52z" />
<glyph unicode="_" horiz-adv-x="600" d="M-55 -105q0 25 15 40t40 15h600q25 0 40 -15t15 -40t-15 -40t-40 -15h-600q-25 0 -40 15t-15 40z" />
<glyph unicode="`" horiz-adv-x="370" d="M285 628q0 -27 -18 -45t-44 -18q-19 0 -39 13l-63 41q-36 23 -36 64q0 30 20 51t49 21q31 0 59 -28l47 -47q25 -25 25 -52z" />
<glyph unicode="a" horiz-adv-x="575" d="M288 530q112 0 177 -63.5t65 -173.5v-217q0 -36 -22.5 -58.5t-58.5 -22.5q-53 0 -73 44q-56 -49 -149 -49q-91 0 -144 43t-53 114t56 117t147 46q68 0 117 -26v11q0 39 -28 62t-72 23q-36 0 -74 -16q-20 -9 -39 -9q-31 0 -50 19t-19 49q0 41 42 66q70 41 178 41zM282 100 q32 0 52.5 16t20.5 39t-20.5 39t-52.5 16t-52 -15.5t-20 -39.5t20 -39.5t52 -15.5z" />
<glyph unicode="b" horiz-adv-x="645" d="M368 530q102 0 174.5 -77t72.5 -190t-75 -193t-178 -80q-90 0 -148 67q-7 -29 -28.5 -45.5t-52.5 -16.5q-37 0 -60 23t-23 60v537q0 40 25 65t65 25t65 -25t25 -65v-141q58 56 138 56zM330 155q45 0 75 30.5t30 74.5t-30 74.5t-75 30.5t-75 -30.5t-30 -74.5t30 -74.5 t75 -30.5z" />
<glyph unicode="c" horiz-adv-x="528" d="M30 257q0 115 83 194t205 79q82 0 139 -35q49 -30 49 -78q0 -37 -23 -60.5t-60 -23.5q-22 0 -52 17q-26 15 -56 15q-45 0 -75 -30.5t-30 -74.5t30 -74.5t75 -30.5q33 0 61 17t51 17q36 0 58.5 -23t22.5 -59q0 -39 -37 -69q-62 -48 -159 -48q-122 0 -202 76t-80 191z" />
<glyph unicode="d" horiz-adv-x="645" d="M505 705q40 0 65 -25t25 -65v-537q0 -37 -23 -60t-60 -23q-32 0 -54.5 18.5t-27.5 48.5q-63 -72 -153 -72q-102 0 -174.5 77t-72.5 190t75 193t178 80q79 0 132 -50v135q0 40 25 65t65 25zM315 155q45 0 75 30.5t30 74.5t-30 74.5t-75 30.5t-75 -30.5t-30 -74.5t30 -74.5 t75 -30.5z" />
<glyph unicode="e" horiz-adv-x="600" d="M30 257q0 115 81.5 194t201.5 79q109 0 185.5 -72t76.5 -165q0 -33 -19.5 -53t-52.5 -20h-289q9 -34 38.5 -54.5t72.5 -20.5q45 0 86 23q25 14 47 14q33 0 53.5 -20t20.5 -53q0 -39 -42 -70q-65 -49 -178 -49q-122 0 -202 76t-80 191zM212 325h191q-6 31 -32.5 53 t-60.5 22q-36 0 -63 -21t-35 -54z" />
<glyph unicode="f" horiz-adv-x="445" d="M15 418q0 32 20.5 52t52.5 20h22v35q0 86 49.5 135.5t135.5 49.5q50 0 80 -8q65 -17 65 -68q0 -31 -19 -50.5t-50 -19.5q-3 0 -10 0.5t-11 0.5q-60 0 -60 -55v-20h67q32 0 52.5 -20t20.5 -52q0 -33 -20.5 -53t-52.5 -20h-67v-260q0 -40 -25 -65t-65 -25t-65 25t-25 65 v260h-22q-32 0 -52.5 20t-20.5 53z" />
<glyph unicode="g" horiz-adv-x="645" d="M512 525q37 0 60 -23t23 -60v-309q0 -139 -78.5 -221t-219.5 -82q-134 0 -222 55q-44 25 -44 68q0 32 20 52.5t51 20.5q20 0 46 -12q71 -34 132 -34q63 0 99 28.5t36 84.5v2q-50 -45 -133 -45q-107 0 -179.5 69t-72.5 168q0 104 71.5 173.5t186.5 69.5q89 0 146 -57 q18 52 78 52zM315 190q45 0 75 27.5t30 67.5t-30 67.5t-75 27.5t-75 -27.5t-30 -67.5t30 -67.5t75 -27.5z" />
<glyph unicode="h" horiz-adv-x="615" d="M378 530q83 0 137.5 -55t54.5 -147v-243q0 -40 -25 -65t-65 -25t-65 25t-25 65v185q0 47 -21 71t-57 24t-58.5 -23t-23.5 -67v-190q0 -40 -25 -65t-65 -25t-65 25t-25 65v531q0 39 25 64t65 25t65 -25t25 -64v-156q56 70 148 70z" />
<glyph unicode="i" horiz-adv-x="292" d="M146 560q-46 0 -75.5 28t-29.5 72t29.5 72t75.5 28t75.5 -28t29.5 -72t-29.5 -72t-75.5 -28zM146 525q40 0 65.5 -25.5t25.5 -65.5v-347q0 -40 -25.5 -66t-65.5 -26t-65.5 26t-25.5 66v347q0 40 25.5 65.5t65.5 25.5z" />
<glyph unicode="j" horiz-adv-x="292" d="M146 560q-46 0 -75.5 28t-29.5 72t29.5 72t75.5 28t75.5 -28t29.5 -72t-29.5 -72t-75.5 -28zM146 525q40 0 65.5 -25.5t25.5 -65.5v-371q0 -114 -53.5 -173.5t-149.5 -59.5q-23 0 -41 4q-30 6 -50 26.5t-20 50.5q0 34 20.5 54t54.5 20h4q53 0 53 63v386q0 40 25.5 65.5 t65.5 25.5z" />
<glyph unicode="k" horiz-adv-x="555" d="M50 85v531q0 39 25 64t65 25t65 -25t25 -64v-320l171 200q24 29 63 29q34 0 55 -21.5t21 -55.5t-23 -59l-105 -110l112 -143q21 -28 21 -58q0 -37 -23 -60t-60 -23q-44 0 -72 39l-160 219v-168q0 -40 -25 -65t-65 -25t-65 25t-25 65z" />
<glyph unicode="l" horiz-adv-x="292" d="M146 705q40 0 65.5 -25.5t25.5 -65.5v-527q0 -40 -25.5 -66t-65.5 -26t-65.5 26t-25.5 66v527q0 40 25.5 65.5t65.5 25.5z" />
<glyph unicode="m" horiz-adv-x="935" d="M703 530q83 0 135 -54.5t52 -147.5v-243q0 -40 -25 -65t-65 -25t-65 25t-25 65v185q0 95 -73 95q-33 0 -54 -21.5t-23 -64.5v-194q0 -40 -25 -65t-65 -25t-65 25t-25 65v185q0 95 -73 95q-33 0 -54 -21.5t-23 -64.5v-194q0 -40 -25 -65t-65 -25t-65 25t-25 65v356 q0 37 23.5 60.5t60.5 23.5q34 0 57 -21t27 -54q25 38 66.5 59t88.5 21q115 0 164 -97q25 46 68.5 71.5t97.5 25.5z" />
<glyph unicode="n" horiz-adv-x="615" d="M378 530q85 0 138.5 -54.5t53.5 -147.5v-243q0 -40 -25 -65t-65 -25t-65 25t-25 65v185q0 47 -21 71t-57 24q-37 0 -59.5 -24t-22.5 -71v-185q0 -40 -25 -65t-65 -25t-65 25t-25 65v356q0 37 23.5 60.5t60.5 23.5q34 0 57.5 -21t26.5 -54q26 39 68.5 59.5t91.5 20.5z" />
<glyph unicode="o" horiz-adv-x="630" d="M30 257q0 115 83 194t205 79t202 -76t80 -191t-83 -194t-205 -79t-202 76t-80 191zM210 260q0 -44 30 -74.5t75 -30.5t75 30.5t30 74.5t-30 74.5t-75 30.5t-75 -30.5t-30 -74.5z" />
<glyph unicode="p" horiz-adv-x="645" d="M368 530q102 0 174.5 -77t72.5 -190t-75 -193t-178 -80q-78 0 -132 49v-114q0 -40 -25 -65t-65 -25t-65 25t-25 65v517q0 37 23 60t60 23q32 0 54.5 -18t27.5 -48q61 71 153 71zM330 155q45 0 75 30.5t30 74.5t-30 74.5t-75 30.5t-75 -30.5t-30 -74.5t30 -74.5t75 -30.5z " />
<glyph unicode="q" horiz-adv-x="645" d="M512 525q37 0 60 -23t23 -60v-517q0 -40 -25 -65t-65 -25t-65 25t-25 65v120q-57 -55 -138 -55q-102 0 -174.5 77t-72.5 190t75 193t178 80q92 0 148 -67q7 28 28.5 45t52.5 17zM315 155q45 0 75 30.5t30 74.5t-30 74.5t-75 30.5t-75 -30.5t-30 -74.5t30 -74.5t75 -30.5z " />
<glyph unicode="r" horiz-adv-x="428" d="M50 85v361q0 35 22 57t57 22t57.5 -22t22.5 -57v-19q47 103 127 103q40 0 66 -26t26 -66q0 -41 -25.5 -67t-66.5 -26q-49 0 -77.5 -29.5t-28.5 -88.5v-142q0 -40 -25 -65t-65 -25t-65 25t-25 65z" />
<glyph unicode="s" horiz-adv-x="478" d="M15 104q0 29 18 47.5t48 18.5q21 0 40 -12q20 -13 30 -19t32 -12t47 -6q41 0 41 26q0 14 -19 27t-79 34q-140 48 -140 161q0 67 56 114t154 47q86 0 151 -40q17 -10 29.5 -27.5t12.5 -35.5q0 -30 -17.5 -48.5t-46.5 -18.5q-20 0 -46 15q-39 24 -78 24q-38 0 -38 -24 q0 -12 16 -24t67 -28q74 -24 114.5 -66.5t40.5 -97.5q0 -77 -57 -123t-160 -46q-114 0 -180 52q-36 27 -36 62z" />
<glyph unicode="t" horiz-adv-x="460" d="M15 448q0 32 20 52t53 20h22v35q0 40 25 65t65 25t65 -25t25 -65v-35h73q32 0 52 -20t20 -52q0 -33 -20 -53t-52 -20h-73v-170q0 -50 45 -50q4 0 11.5 0.5t10.5 0.5q35 0 56.5 -20t21.5 -54q0 -29 -17.5 -50t-44.5 -30q-38 -12 -88 -12q-81 0 -128 43.5t-47 121.5v220 h-22q-33 0 -53 20t-20 53z" />
<glyph unicode="u" horiz-adv-x="615" d="M475 525q40 0 65 -25t25 -65v-356q0 -37 -23.5 -60.5t-60.5 -23.5q-34 0 -57.5 21t-26.5 54q-26 -39 -68.5 -59.5t-91.5 -20.5q-85 0 -138.5 54.5t-53.5 147.5v243q0 40 25 65t65 25t65 -25t25 -65v-185q0 -47 21 -71t57 -24q37 0 59.5 24t22.5 71v185q0 40 25 65t65 25z " />
<glyph unicode="v" horiz-adv-x="536" d="M10 434q0 40 25.5 65.5t65.5 25.5q63 0 89 -71l81 -222l83 228q23 65 86 65q37 0 61.5 -24t24.5 -61q0 -19 -9 -41l-128 -309q-39 -95 -123 -95q-83 0 -122 95l-125 300q-9 22 -9 44z" />
<glyph unicode="w" horiz-adv-x="780" d="M10 435q0 39 25.5 64.5t65.5 25.5q31 0 55 -17t32 -47l61 -220l61 218q19 66 85 66q30 0 53 -17.5t31 -48.5l59 -212l62 214q8 29 31 46.5t53 17.5q38 0 62 -24t24 -62q0 -18 -6 -36l-108 -328q-26 -80 -108 -80q-39 0 -67.5 21t-39.5 59l-52 176l-51 -176 q-11 -39 -40 -59.5t-68 -20.5q-82 0 -108 80l-106 326q-6 20 -6 34z" />
<glyph unicode="x" horiz-adv-x="521" d="M10 74q0 31 22 55l120 134l-106 121q-24 28 -24 59q0 36 24 59t61 23q44 0 71 -35l87 -111l88 109q30 37 70 37q35 0 57.5 -22t22.5 -56q0 -31 -24 -59l-108 -119l118 -135q22 -26 22 -57q0 -36 -24 -58.5t-61 -23.5q-43 1 -70 35l-98 123l-98 -121q-31 -37 -70 -37 q-35 0 -57.5 22t-22.5 57z" />
<glyph unicode="y" horiz-adv-x="536" d="M0 -78q0 34 21 54.5t54 20.5q10 0 28.5 -3.5t26.5 -3.5q16 0 27.5 5t14.5 10l4 5l-154 375q-12 29 -12 49q0 40 26 65.5t67 25.5q63 0 88 -74l80 -238l82 245q23 67 85 67q38 0 63 -24t25 -61q0 -23 -10 -44l-167 -401q-36 -85 -85.5 -125t-129.5 -40q-42 0 -82 18 q-52 24 -52 74z" />
<glyph unicode="z" horiz-adv-x="540" d="M25 87q0 39 29 68l206 215h-145q-33 0 -54 21t-21 54t21 54t54 21h306q38 0 63.5 -24.5t25.5 -62.5q0 -39 -31 -70l-204 -213h160q33 0 54 -21t21 -54t-21 -54t-54 -21h-322q-40 0 -64 24t-24 63z" />
<glyph unicode="{" horiz-adv-x="475" d="M378 65q32 0 52 -20t20 -52q0 -33 -20 -53t-52 -20h-68q-94 0 -137 43t-43 137v145q0 40 -40 40h-1q-29 0 -46.5 18t-17.5 47t17.5 47t46.5 18h1q40 0 40 40v145q0 94 43 137t137 43h68q32 0 52 -20t20 -52q0 -33 -20 -53t-52 -20h-23q-26 0 -38 -12t-12 -38v-115 q0 -117 -96 -120q96 -3 96 -120v-115q0 -26 12 -38t38 -12h23z" />
<glyph unicode="|" horiz-adv-x="340" d="M170 805q32 0 51 -19.5t19 -50.5v-770q0 -31 -19 -50.5t-51 -19.5t-51 19.5t-19 50.5v770q0 31 19 50.5t51 19.5z" />
<glyph unicode="}" horiz-adv-x="475" d="M386 415q29 0 46.5 -18t17.5 -47t-17.5 -47t-46.5 -18h-1q-40 0 -40 -40v-145q0 -94 -43 -137t-137 -43h-68q-32 0 -52 20t-20 52q0 33 20 53t52 20h23q26 0 38 12t12 38v115q0 117 96 120q-96 3 -96 120v115q0 26 -12 38t-38 12h-23q-32 0 -52 20t-20 52q0 33 20 53 t52 20h68q94 0 137 -43t43 -137v-145q0 -40 40 -40h1z" />
<glyph unicode="~" d="M414 205q-37 0 -68 15t-48.5 32.5t-39 32.5t-40.5 15q-17 0 -26 -9.5t-17 -28.5q-23 -54 -64 -54q-28 0 -47 20t-19 50q0 12 3 25q14 60 53 106t105 46q37 0 68 -15t48.5 -32.5t39 -32.5t40.5 -15q12 0 20.5 6t12.5 12t10 20q25 54 64 54q28 0 47 -20t19 -50 q0 -12 -3 -25q-14 -60 -53 -106t-105 -46z" />
<glyph unicode="&#xa1;" horiz-adv-x="340" d="M280 600q0 -46 -32 -78t-78 -32t-78 32t-32 78t32 78t78 32t78 -32t32 -78zM271 100q4 -44 -25.5 -74.5t-75.5 -30.5t-75.5 30.5t-25.5 74.5l25 272q3 35 23.5 56.5t52.5 21.5t52.5 -21.5t23.5 -56.5z" />
<glyph unicode="&#xa2;" horiz-adv-x="548" d="M40 437q0 99 63.5 173t162.5 94v51q0 23 14 36.5t36 13.5t36 -13.5t14 -36.5v-47q61 -7 101 -33q49 -30 49 -78q0 -37 -23 -60.5t-60 -23.5q-22 0 -52 17q-26 15 -56 15q-45 0 -75 -30.5t-30 -74.5t30 -74.5t75 -30.5q33 0 61 17t51 17q36 0 58.5 -23t22.5 -59 q0 -39 -37 -69q-45 -35 -115 -45v-48q0 -23 -14 -36.5t-36 -13.5t-36 13.5t-14 36.5v50q-101 17 -163.5 89.5t-62.5 172.5z" />
<glyph unicode="&#xa3;" horiz-adv-x="600" d="M25 340q0 22 13.5 36t36.5 14h35v67q0 118 71.5 185.5t181.5 67.5q60 0 103 -20t64 -41q36 -36 36 -72q0 -37 -22.5 -59.5t-59.5 -22.5q-33 0 -65 28q-27 22 -59 22q-31 0 -50.5 -19.5t-19.5 -50.5v-85h146q22 0 35.5 -14t13.5 -36t-13.5 -36t-35.5 -14h-146v-135h203 q34 0 55.5 -21.5t21.5 -55.5t-21.5 -56t-55.5 -22h-293q-40 0 -65 25t-25 65v200h-35q-23 0 -36.5 14t-13.5 36z" />
<glyph unicode="&#xa4;" horiz-adv-x="667" d="M40 103q0 19 20 39l68 65q-46 63 -46 141q0 76 48 142l-74 71q-16 15 -16 37q0 20 13 33t34 13q20 0 39 -19l73 -70q62 40 137 40q74 0 134 -38l72 69q18 18 39 18q20 0 33 -13t13 -33q0 -23 -20 -41l-67 -65q46 -63 46 -140t-48 -143l69 -66q20 -20 20 -40 q0 -21 -13 -34t-33 -13q-21 0 -37 16l-75 73q-64 -40 -137 -40q-75 0 -135 38l-71 -69q-20 -18 -39 -18q-21 0 -34 13t-13 34zM234 350q0 -44 28 -72t72 -28t72 28t28 72t-28 72t-72 28t-72 -28t-28 -72z" />
<glyph unicode="&#xa5;" horiz-adv-x="640" d="M15 220q0 20 12.5 32.5t32.5 12.5h165v31l-17 29h-148q-20 0 -32.5 12.5t-12.5 32.5t12.5 32.5t32.5 12.5h96l-82 141q-17 29 -17 57q0 41 25.5 66.5t66.5 25.5q58 0 88 -61l88 -178l89 183q26 56 84 56q39 0 63.5 -24.5t24.5 -63.5q0 -27 -15 -52l-88 -150h97 q20 0 32.5 -12.5t12.5 -32.5t-12.5 -32.5t-32.5 -12.5h-150l-15 -26v-34h165q20 0 32.5 -12.5t12.5 -32.5t-12.5 -32.5t-32.5 -12.5h-165v-85q0 -41 -27 -68t-68 -27t-68 27t-27 68v85h-165q-20 0 -32.5 12.5t-12.5 32.5z" />
<glyph unicode="&#xa6;" horiz-adv-x="340" d="M100 515v220q0 31 19 50.5t51 19.5t51 -19.5t19 -50.5v-220q0 -31 -19 -50.5t-51 -19.5t-51 19.5t-19 50.5zM100 -35v220q0 31 19 50.5t51 19.5t51 -19.5t19 -50.5v-220q0 -31 -19 -50.5t-51 -19.5t-51 19.5t-19 50.5z" />
<glyph unicode="&#xa7;" horiz-adv-x="660" d="M40 277q0 47 29 86t82 62q-31 44 -31 97q0 84 64 136t169 52q92 0 161 -49q16 -11 27.5 -29.5t11.5 -37.5q0 -34 -20.5 -54.5t-54.5 -20.5q-24 0 -52 18q-41 25 -71 25q-16 0 -28 -9.5t-12 -23.5q0 -37 95 -69q113 -38 161.5 -86.5t48.5 -110.5q0 -48 -29 -87t-83 -61 q32 -46 32 -97q0 -84 -64 -136t-169 -52q-92 0 -161 49q-16 11 -27.5 29.5t-11.5 37.5q0 34 20.5 54.5t54.5 20.5q24 0 52 -18q41 -25 71 -25q17 0 28.5 9t11.5 24q0 37 -95 69q-113 38 -161.5 86.5t-48.5 110.5zM225 304q0 -25 28 -45.5t104 -43.5q29 -10 49 -19 q29 15 29 40t-28 45.5t-104 43.5q-28 8 -50 18q-28 -14 -28 -39z" />
<glyph unicode="&#xa8;" horiz-adv-x="510" d="M139 570q-39 0 -64 25t-25 64t26 65t65 26t64 -25t25 -64t-26 -65t-65 -26zM369 570q-39 0 -64 25t-25 64t26 65t65 26t64 -25t25 -64t-26 -65t-65 -26z" />
<glyph unicode="&#xa9;" horiz-adv-x="826" d="M50 348q0 152 105.5 257t259.5 105t257.5 -103t103.5 -255t-105.5 -257t-259.5 -105t-257.5 103t-103.5 255zM146 350q0 -114 77.5 -192t189.5 -78t189.5 78t77.5 192t-77.5 192t-189.5 78t-189.5 -78t-77.5 -192zM222 348q0 84 57 142t143 58q59 0 110 -31 q35 -21 35 -49q0 -23 -13 -37t-35 -14q-13 0 -39 14q-29 16 -55 16q-40 0 -66.5 -28t-26.5 -69t26.5 -69t66.5 -28q31 0 61 20q19 13 35 13q21 0 35 -13t14 -34q0 -26 -22 -42q-60 -45 -129 -45q-86 0 -141.5 56t-55.5 140z" />
<glyph unicode="&#xaa;" horiz-adv-x="408" d="M50 474q0 43 34.5 70.5t91.5 27.5q38 0 64 -13v6q0 49 -54 49q-24 0 -48 -9q-15 -6 -23 -6q-18 0 -29 11.5t-11 29.5q0 26 29 41q46 23 105 23q69 0 109 -37.5t40 -104.5v-129q0 -23 -15 -37.5t-37 -14.5q-30 0 -45 25l-1 1q-37 -27 -88 -27q-57 0 -89.5 25.5t-32.5 68.5 zM168 479q0 -13 10 -23t27 -10t27.5 10t10.5 23t-10.5 23t-27.5 10t-27 -10t-10 -23zM55 305q0 15 10 25t25 10h238q15 0 25 -10t10 -25t-10 -25t-25 -10h-238q-15 0 -25 10t-10 25z" />
<glyph unicode="&#xab;" horiz-adv-x="753" d="M50 350q0 31 26 55l184 176q23 21 51 21q29 0 48 -18.5t19 -48.5q0 -27 -18 -47l-124 -136l115 -126q27 -29 27 -57q0 -30 -19.5 -49t-49.5 -19q-29 0 -54 23l-179 171q-26 24 -26 55zM375 350q0 31 26 55l184 176q23 21 51 21q29 0 48 -18.5t19 -48.5q0 -27 -18 -47 l-124 -136l115 -126q27 -29 27 -57q0 -30 -19.5 -49t-49.5 -19q-29 0 -54 23l-179 171q-26 24 -26 55z" />
<glyph unicode="&#xac;" d="M495 455q33 0 54 -21t21 -54v-150q0 -33 -21 -54t-54 -21t-54 21t-21 54v85h-305q-31 0 -50.5 19.5t-19.5 50.5t19.5 50.5t50.5 19.5h380z" />
<glyph unicode="&#xad;" horiz-adv-x="420" d="M295 435q35 0 57.5 -22.5t22.5 -57.5t-22.5 -57.5t-57.5 -22.5h-170q-35 0 -57.5 22.5t-22.5 57.5t22.5 57.5t57.5 22.5h170z" />
<glyph unicode="&#xae;" horiz-adv-x="536" d="M50 493q0 91 63.5 154t155.5 63t154.5 -62t62.5 -153t-63.5 -154t-155.5 -63t-154.5 62t-62.5 153zM108 494q0 -68 46.5 -115t113.5 -47t113.5 47t46.5 115t-46.5 115t-113.5 47t-113.5 -47t-46.5 -115zM186 415v156q0 12 8 20t21 8h68q35 0 57 -19.5t22 -51.5 q0 -45 -39 -63l25 -33q8 -11 8 -20q0 -11 -7.5 -18.5t-18.5 -7.5q-14 0 -24 13l-42 57h-21v-41q0 -13 -8 -21t-20 -8q-13 0 -21 8t-8 21zM243 500h33q29 0 29 25q0 26 -29 26h-33v-51z" />
<glyph unicode="&#xaf;" horiz-adv-x="460" d="M365 710q22 0 36 -14t14 -36t-14 -36t-36 -14h-270q-22 0 -36 14t-14 36t14 36t36 14h270z" />
<glyph unicode="&#xb0;" horiz-adv-x="446" d="M40 529q0 76 53.5 128.5t130.5 52.5t129.5 -51.5t52.5 -127.5t-53.5 -128.5t-130.5 -52.5t-129.5 51.5t-52.5 127.5zM143 530q0 -36 22.5 -59.5t57.5 -23.5t57.5 23.5t22.5 59.5t-22.5 59.5t-57.5 23.5t-57.5 -23.5t-22.5 -59.5z" />
<glyph unicode="&#xb1;" d="M115 375q-31 0 -50.5 19.5t-19.5 50.5t19.5 50.5t50.5 19.5h123v99q0 32 20 51.5t52 19.5t52 -19.5t20 -51.5v-99h123q31 0 50.5 -19.5t19.5 -50.5t-19.5 -50.5t-50.5 -19.5h-123v-98q0 -32 -20 -52t-52 -20t-52 20t-20 52v98h-123zM505 160q31 0 50.5 -19.5t19.5 -50.5 t-19.5 -50.5t-50.5 -19.5h-390q-31 0 -50.5 19.5t-19.5 50.5t19.5 50.5t50.5 19.5h390z" />
<glyph unicode="&#xb2;" horiz-adv-x="363" d="M30 339q0 27 25 51l116 106q42 39 42 69q0 15 -11 26t-28 11q-28 0 -52 -26q-20 -22 -41 -22q-23 0 -37 14t-14 37q0 18 15 38q48 63 140 63q65 0 105.5 -36t40.5 -90q0 -41 -19.5 -73.5t-63.5 -70.5l-64 -55h99q22 0 36 -14t14 -36t-14 -36.5t-36 -14.5h-194 q-26 0 -42.5 16.5t-16.5 42.5z" />
<glyph unicode="&#xb3;" horiz-adv-x="357" d="M20 370q0 21 14.5 35t36.5 14q21 0 40 -21q21 -25 53 -25q21 0 33 11t12 27q0 42 -54 42h-6q-18 0 -29.5 12t-11.5 30q0 17 11.5 29t29.5 12h6q42 0 42 37q0 16 -10 25t-26 9q-23 0 -38 -17q-18 -20 -39 -20q-22 0 -35.5 13.5t-13.5 35.5q0 16 14 34q46 53 121 53 q63 0 104 -31.5t41 -83.5q0 -57 -56 -93q68 -33 68 -100q0 -57 -44.5 -90.5t-116.5 -33.5q-84 0 -134 63q-12 16 -12 33z" />
<glyph unicode="&#xb4;" horiz-adv-x="370" d="M85 628q0 27 25 52l47 47q28 28 59 28q29 0 49 -21t20 -51q0 -41 -36 -64l-63 -41q-20 -13 -39 -13q-26 0 -44 18t-18 45z" />
<glyph unicode="&#xb6;" horiz-adv-x="820" d="M650 700q35 0 57.5 -22.5t22.5 -57.5v-544q0 -36 -22.5 -58.5t-57.5 -22.5t-57.5 22.5t-22.5 58.5v479h-100v-479q0 -36 -22.5 -58.5t-57.5 -22.5t-57.5 22.5t-22.5 58.5v179h-23q-110 0 -178.5 61.5t-68.5 158.5t71.5 161t181.5 64h357z" />
<glyph unicode="&#xb7;" horiz-adv-x="320" d="M50 350q0 46 32 78t78 32t78 -32t32 -78t-32 -78t-78 -32t-78 32t-32 78z" />
<glyph unicode="&#xb8;" horiz-adv-x="355" d="M36 -128q0 24 15 39t38 15q9 0 23 -3t21 -3q26 0 41.5 12.5t15.5 35.5q0 10 -4 18t-8 11l-5 3l52 70q4 -1 10 -3.5t21.5 -12.5t27.5 -22.5t21.5 -34.5t9.5 -47q0 -66 -49.5 -105.5t-115.5 -39.5q-39 0 -72 13q-42 16 -42 54z" />
<glyph unicode="&#xb9;" horiz-adv-x="311" d="M20 574q0 26 25 44l99 70q24 17 48 17q30 0 49.5 -19.5t19.5 -51.5v-299q0 -26 -16.5 -43t-42.5 -17t-42.5 17t-16.5 43v229l-39 -25q-20 -13 -36 -13q-22 0 -35 13t-13 35z" />
<glyph unicode="&#xba;" horiz-adv-x="450" d="M223 380q-75 0 -124 45.5t-49 114.5t50.5 116.5t126.5 47.5q75 0 124 -45.5t49 -114.5t-50.5 -116.5t-126.5 -47.5zM225 485q25 0 41 16.5t16 40.5t-16 40.5t-41 16.5t-41 -16.5t-16 -40.5t16 -40.5t41 -16.5zM90 270q-15 0 -25 10t-10 25t10 25t25 10h270q15 0 25 -10 t10 -25t-10 -25t-25 -10h-270z" />
<glyph unicode="&#xbb;" horiz-adv-x="753" d="M378 353q0 -31 -26 -55l-184 -176q-23 -21 -51 -21q-29 0 -48 18.5t-19 48.5q0 27 18 47l124 136l-115 126q-27 29 -27 57q0 30 19.5 49t49.5 19q29 0 54 -23l179 -171q26 -24 26 -55zM703 353q0 -31 -26 -55l-184 -176q-23 -21 -51 -21q-29 0 -48 18.5t-19 48.5 q0 27 18 47l124 136l-115 126q-27 29 -27 57q0 30 19.5 49t49.5 19q29 0 54 -23l179 -171q26 -24 26 -55z" />
<glyph unicode="&#xbc;" horiz-adv-x="835" d="M30 574q0 26 25 44l99 70q24 17 48 17q30 0 49.5 -19.5t19.5 -51.5v-299q0 -26 -16.5 -43t-42.5 -17t-42.5 17t-16.5 43v229l-39 -25q-20 -13 -36 -13q-22 0 -35 13t-13 35zM152 40q0 17 15 36l455 607q16 22 41 22q20 0 32.5 -12.5t12.5 -31.5q0 -18 -14 -36l-456 -607 q-17 -23 -41 -23q-21 0 -33 12t-12 33zM450 147q0 24 18 48l137 191q28 39 67 39q32 0 52.5 -21t20.5 -54v-179h20q20 0 32.5 -12.5t12.5 -32.5t-12.5 -32.5t-32.5 -12.5h-20v-32q0 -24 -15 -39t-38 -15q-24 0 -39 15t-15 39v32h-120q-31 0 -49.5 18.5t-18.5 47.5zM548 171 h90v125z" />
<glyph unicode="&#xbd;" horiz-adv-x="889" d="M30 574q0 26 25 44l99 70q24 17 48 17q30 0 49.5 -19.5t19.5 -51.5v-299q0 -26 -16.5 -43t-42.5 -17t-42.5 17t-16.5 43v229l-39 -25q-20 -13 -36 -13q-22 0 -35 13t-13 35zM152 40q0 17 15 36l455 607q16 22 41 22q20 0 32.5 -12.5t12.5 -31.5q0 -18 -14 -36l-456 -607 q-17 -23 -41 -23q-21 0 -33 12t-12 33zM546 59q0 27 25 51l116 106q42 39 42 69q0 15 -11 26t-28 11q-28 0 -52 -26q-20 -22 -41 -22q-23 0 -37 14t-14 37q0 18 15 38q48 63 140 63q65 0 105.5 -36t40.5 -90q0 -41 -19.5 -73.5t-63.5 -70.5l-64 -55h99q22 0 36 -14t14 -36 t-14 -36.5t-36 -14.5h-194q-26 0 -42.5 16.5t-16.5 42.5z" />
<glyph unicode="&#xbe;" horiz-adv-x="855" d="M25 370q0 21 14.5 35t36.5 14q21 0 40 -21q21 -25 53 -25q21 0 33 11t12 27q0 42 -54 42h-6q-18 0 -29.5 12t-11.5 30q0 17 11.5 29t29.5 12h6q42 0 42 37q0 16 -10 25t-26 9q-23 0 -38 -17q-18 -20 -39 -20q-22 0 -35.5 13.5t-13.5 35.5q0 16 14 34q46 53 121 53 q63 0 104 -31.5t41 -83.5q0 -57 -56 -93q68 -33 68 -100q0 -57 -44.5 -90.5t-116.5 -33.5q-84 0 -134 63q-12 16 -12 33zM172 40q0 17 15 36l455 607q16 22 41 22q20 0 32.5 -12.5t12.5 -31.5q0 -18 -14 -36l-456 -607q-17 -23 -41 -23q-21 0 -33 12t-12 33zM470 147 q0 24 18 48l137 191q28 39 67 39q32 0 52.5 -21t20.5 -54v-179h20q20 0 32.5 -12.5t12.5 -32.5t-12.5 -32.5t-32.5 -12.5h-20v-32q0 -24 -15 -39t-38 -15q-24 0 -39 15t-15 39v32h-120q-31 0 -49.5 18.5t-18.5 47.5zM568 171h90v125z" />
<glyph unicode="&#xbf;" horiz-adv-x="527" d="M280 710q46 0 78 -32t32 -78t-32 -78t-78 -32t-78 32t-32 78t32 78t78 32zM277 450q30 0 48.5 -18t18.5 -46q0 -25 -18.5 -47t-40.5 -36t-40.5 -36.5t-18.5 -49.5q0 -22 15.5 -38.5t39.5 -16.5q39 0 70 34q28 31 66 31q36 0 58 -23t22 -59q0 -31 -22 -59 q-74 -96 -208 -96q-96 0 -161.5 57.5t-65.5 139.5q0 41 12.5 75t39.5 63.5t46 45.5t55 42q52 37 84 37z" />
<glyph unicode="&#xc0;" horiz-adv-x="694" d="M400 808q0 -27 -18 -45t-44 -18q-20 0 -39 13l-63 41q-36 23 -36 64q0 30 20 51t49 21q31 0 59 -28l47 -47q25 -25 25 -52zM10 85q0 22 13 52l196 472q40 96 131 96t130 -96l190 -461q14 -34 14 -57q0 -42 -26.5 -69t-68.5 -27q-68 0 -94 73l-19 52h-266l-18 -51 q-27 -74 -90 -74q-40 0 -66 25.5t-26 64.5zM265 270h157l-78 216z" />
<glyph unicode="&#xc1;" horiz-adv-x="694" d="M294 808q0 27 25 52l47 47q28 28 59 28q29 0 49 -21t20 -51q0 -41 -36 -64l-63 -41q-19 -13 -39 -13q-26 0 -44 18t-18 45zM10 85q0 22 13 52l196 472q40 96 131 96t130 -96l190 -461q14 -34 14 -57q0 -42 -26.5 -69t-68.5 -27q-68 0 -94 73l-19 52h-266l-18 -51 q-27 -74 -90 -74q-40 0 -66 25.5t-26 64.5zM265 270h157l-78 216z" />
<glyph unicode="&#xc2;" horiz-adv-x="694" d="M527 808q0 -27 -18 -45t-44 -18q-25 0 -45 16l-74 59l-76 -60q-19 -15 -41 -15q-26 0 -44 18t-18 45q0 33 26 53l42 34q48 40 112 40t112 -40l42 -34q26 -21 26 -53zM10 85q0 22 13 52l196 472q40 96 131 96t130 -96l190 -461q14 -34 14 -57q0 -42 -26.5 -69t-68.5 -27 q-68 0 -94 73l-19 52h-266l-18 -51q-27 -74 -90 -74q-40 0 -66 25.5t-26 64.5zM265 270h157l-78 216z" />
<glyph unicode="&#xc3;" horiz-adv-x="694" d="M212 750q-20 0 -32 13.5t-12 33.5q0 8 2 20q7 37 34 70t73 33q33 0 58 -16t43.5 -32t33.5 -16q19 0 27 29q10 35 44 35q20 0 32 -13.5t12 -33.5q0 -8 -2 -20q-7 -37 -34 -70t-73 -33q-32 0 -57.5 16t-43.5 32t-34 16q-19 0 -27 -29q-10 -35 -44 -35zM10 85q0 22 13 52 l196 472q40 96 131 96t130 -96l190 -461q14 -34 14 -57q0 -42 -26.5 -69t-68.5 -27q-68 0 -94 73l-19 52h-266l-18 -51q-27 -74 -90 -74q-40 0 -66 25.5t-26 64.5zM265 270h157l-78 216z" />
<glyph unicode="&#xc4;" horiz-adv-x="694" d="M231 750q-39 0 -64 25t-25 64t26 65t65 26t64 -25t25 -64t-26 -65t-65 -26zM461 750q-39 0 -64 25t-25 64t26 65t65 26t64 -25t25 -64t-26 -65t-65 -26zM10 85q0 22 13 52l196 472q40 96 131 96t130 -96l190 -461q14 -34 14 -57q0 -42 -26.5 -69t-68.5 -27q-68 0 -94 73 l-19 52h-266l-18 -51q-27 -74 -90 -74q-40 0 -66 25.5t-26 64.5zM265 270h157l-78 216z" />
<glyph unicode="&#xc5;" horiz-adv-x="694" d="M237 845q0 46 31 75.5t79 29.5t79 -29.5t31 -75.5t-31 -75.5t-79 -29.5t-79 29.5t-31 75.5zM304 845q0 -18 12 -30.5t31 -12.5t30.5 12.5t11.5 30.5t-11.5 30t-30.5 12t-31 -12t-12 -30zM10 85q0 22 13 52l196 472q40 96 131 96t130 -96l190 -461q14 -34 14 -57 q0 -42 -26.5 -69t-68.5 -27q-68 0 -94 73l-19 52h-266l-18 -51q-27 -74 -90 -74q-40 0 -66 25.5t-26 64.5zM265 270h157l-78 216z" />
<glyph unicode="&#xc6;" horiz-adv-x="1031" d="M10 84q0 28 17 55l276 478q47 83 136 83h465q36 0 59 -23t23 -59q0 -37 -23 -60t-59 -23h-263v-100h218q34 0 55.5 -21.5t21.5 -55.5q0 -35 -21.5 -56.5t-55.5 -21.5h-218v-115h273q36 0 59 -23t23 -59q0 -37 -23 -60t-59 -23h-368q-41 0 -68 27t-27 68v25h-230l-40 -73 q-29 -52 -82 -52q-40 0 -64.5 24.5t-24.5 64.5zM302 270h149v273z" />
<glyph unicode="&#xc7;" horiz-adv-x="699" d="M591 230q39 0 63.5 -24.5t24.5 -62.5q0 -41 -33 -72q-68 -59 -171 -76q9 -19 9 -45q0 -66 -49.5 -105.5t-115.5 -39.5q-39 0 -72 13q-42 16 -42 54q0 24 15 39t38 15q9 0 23 -3t21 -3q26 0 41.5 12.5t15.5 35.5q0 16 -10 26q-136 20 -222.5 118t-86.5 235 q0 152 107.5 257.5t265.5 105.5q121 0 205 -55q52 -34 52 -85q0 -39 -25.5 -64.5t-62.5 -25.5q-32 0 -62 21q-49 34 -110 34q-78 0 -129 -53t-51 -132t51 -132t129 -53q65 0 116 40q31 25 65 25z" />
<glyph unicode="&#xc8;" horiz-adv-x="650" d="M409 808q0 -27 -18 -45t-44 -18q-19 0 -39 13l-63 41q-36 23 -36 64q0 30 20 51t49 21q31 0 59 -28l47 -47q25 -25 25 -52zM70 95v510q0 41 27 68t68 27h358q36 0 59 -23t23 -59q0 -37 -23 -60t-59 -23h-263v-100h218q34 0 55.5 -21.5t21.5 -55.5q0 -35 -21.5 -56.5 t-55.5 -21.5h-218v-115h273q36 0 59 -23t23 -59q0 -37 -23 -60t-59 -23h-368q-41 0 -68 27t-27 68z" />
<glyph unicode="&#xc9;" horiz-adv-x="650" d="M277 808q0 27 25 52l47 47q28 28 59 28q29 0 49 -21t20 -51q0 -41 -36 -64l-63 -41q-20 -13 -39 -13q-26 0 -44 18t-18 45zM70 95v510q0 41 27 68t68 27h358q36 0 59 -23t23 -59q0 -37 -23 -60t-59 -23h-263v-100h218q34 0 55.5 -21.5t21.5 -55.5q0 -35 -21.5 -56.5 t-55.5 -21.5h-218v-115h273q36 0 59 -23t23 -59q0 -37 -23 -60t-59 -23h-368q-41 0 -68 27t-27 68z" />
<glyph unicode="&#xca;" horiz-adv-x="650" d="M515 808q0 -27 -18 -45t-44 -18q-25 0 -45 16l-74 59l-76 -60q-19 -15 -41 -15q-26 0 -44 18t-18 45q0 33 26 53l42 34q48 40 112 40t112 -40l42 -34q26 -21 26 -53zM70 95v510q0 41 27 68t68 27h358q36 0 59 -23t23 -59q0 -37 -23 -60t-59 -23h-263v-100h218 q34 0 55.5 -21.5t21.5 -55.5q0 -35 -21.5 -56.5t-55.5 -21.5h-218v-115h273q36 0 59 -23t23 -59q0 -37 -23 -60t-59 -23h-368q-41 0 -68 27t-27 68z" />
<glyph unicode="&#xcb;" horiz-adv-x="650" d="M219 750q-39 0 -64 25t-25 64t26 65t65 26t64 -25t25 -64t-26 -65t-65 -26zM449 750q-39 0 -64 25t-25 64t26 65t65 26t64 -25t25 -64t-26 -65t-65 -26zM70 95v510q0 41 27 68t68 27h358q36 0 59 -23t23 -59q0 -37 -23 -60t-59 -23h-263v-100h218q34 0 55.5 -21.5 t21.5 -55.5q0 -35 -21.5 -56.5t-55.5 -21.5h-218v-115h273q36 0 59 -23t23 -59q0 -37 -23 -60t-59 -23h-368q-41 0 -68 27t-27 68z" />
<glyph unicode="&#xcc;" horiz-adv-x="345" d="M139 758l-63 41q-36 23 -36 64q0 30 20 51t49 21q31 0 59 -28l47 -47q25 -25 25 -52t-18 -45t-44 -18q-20 0 -39 13zM173 705q42 0 69.5 -27t27.5 -70v-516q0 -43 -27.5 -70t-69.5 -27q-43 0 -70.5 27t-27.5 70v516q0 43 27.5 70t70.5 27z" />
<glyph unicode="&#xcd;" horiz-adv-x="345" d="M236 935q29 0 49 -21t20 -51q0 -41 -36 -64l-63 -41q-20 -13 -39 -13q-26 0 -44 18t-18 45t25 52l47 47q28 28 59 28zM173 705q42 0 69.5 -27t27.5 -70v-516q0 -43 -27.5 -70t-69.5 -27q-43 0 -70.5 27t-27.5 70v516q0 43 27.5 70t70.5 27z" />
<glyph unicode="&#xce;" horiz-adv-x="345" d="M326 861q26 -21 26 -53q0 -27 -18 -45t-44 -18q-25 0 -45 16l-74 59l-76 -60q-19 -15 -41 -15q-26 0 -44 18t-18 45q0 33 26 53l42 34q48 40 112 40t112 -40zM173 705q42 0 69.5 -27t27.5 -70v-516q0 -43 -27.5 -70t-69.5 -27q-43 0 -70.5 27t-27.5 70v516q0 43 27.5 70 t70.5 27z" />
<glyph unicode="&#xcf;" horiz-adv-x="345" d="M148 841q0 -39 -26 -65t-65 -26t-64 25t-25 64t26 65t65 26t64 -25t25 -64zM289 930q39 0 64 -25t25 -64t-26 -65t-65 -26t-64 25t-25 64t26 65t65 26zM173 705q42 0 69.5 -27t27.5 -70v-516q0 -43 -27.5 -70t-69.5 -27q-43 0 -70.5 27t-27.5 70v516q0 43 27.5 70 t70.5 27z" />
<glyph unicode="&#xd0;" horiz-adv-x="800" d="M373 700q169 0 278 -98.5t109 -248.5t-112 -251.5t-281 -101.5h-162q-41 0 -68 27t-27 68v210h-35q-23 0 -36.5 13.5t-13.5 36.5t13.5 36.5t36.5 13.5h35v200q0 41 27 68t68 27h168zM375 165q85 0 140 52t55 133t-55 133t-140 52h-75v-130h95q23 0 36.5 -13.5t13.5 -36.5 t-13.5 -36.5t-36.5 -13.5h-95v-140h75z" />
<glyph unicode="&#xd1;" horiz-adv-x="790" d="M259 750q-20 0 -32 13.5t-12 33.5q0 8 2 20q7 37 34 70t73 33q33 0 58 -16t43.5 -32t33.5 -16q19 0 27 29q10 35 44 35q20 0 32 -13.5t12 -33.5q0 -8 -2 -20q-7 -37 -34 -70t-73 -33q-32 0 -57.5 16t-43.5 32t-34 16q-19 0 -27 -29q-10 -35 -44 -35zM70 88v494 q0 53 35 88t89 35q67 0 108 -62l233 -344v314q0 41 26 66.5t67 25.5q40 0 66 -25.5t26 -66.5v-502q0 -50 -33 -83t-83 -33q-64 0 -107 62l-242 358v-327q0 -41 -25.5 -67t-66.5 -26t-67 26t-26 67z" />
<glyph unicode="&#xd2;" horiz-adv-x="820" d="M460 808q0 -27 -18 -45t-44 -18q-20 0 -39 13l-63 41q-36 23 -36 64q0 30 20 51t49 21q31 0 59 -28l47 -47q25 -25 25 -52zM40 347q0 152 107.5 257.5t265.5 105.5t262.5 -102.5t104.5 -254.5t-107.5 -257.5t-265.5 -105.5t-262.5 102.5t-104.5 254.5zM230 350 q0 -79 51 -132t129 -53t129 53t51 132t-51 132t-129 53t-129 -53t-51 -132z" />
<glyph unicode="&#xd3;" horiz-adv-x="820" d="M360 808q0 27 25 52l47 47q28 28 59 28q29 0 49 -21t20 -51q0 -41 -36 -64l-63 -41q-19 -13 -39 -13q-26 0 -44 18t-18 45zM40 347q0 152 107.5 257.5t265.5 105.5t262.5 -102.5t104.5 -254.5t-107.5 -257.5t-265.5 -105.5t-262.5 102.5t-104.5 254.5zM230 350 q0 -79 51 -132t129 -53t129 53t51 132t-51 132t-129 53t-129 -53t-51 -132z" />
<glyph unicode="&#xd4;" horiz-adv-x="820" d="M590 808q0 -27 -18 -45t-44 -18q-25 0 -45 16l-74 59l-76 -60q-19 -15 -41 -15q-26 0 -44 18t-18 45q0 33 26 53l42 34q48 40 112 40t112 -40l42 -34q26 -21 26 -53zM40 347q0 152 107.5 257.5t265.5 105.5t262.5 -102.5t104.5 -254.5t-107.5 -257.5t-265.5 -105.5 t-262.5 102.5t-104.5 254.5zM230 350q0 -79 51 -132t129 -53t129 53t51 132t-51 132t-129 53t-129 -53t-51 -132z" />
<glyph unicode="&#xd5;" horiz-adv-x="820" d="M274 750q-20 0 -32 13.5t-12 33.5q0 8 2 20q7 37 34 70t73 33q33 0 58 -16t43.5 -32t33.5 -16q19 0 27 29q10 35 44 35q20 0 32 -13.5t12 -33.5q0 -8 -2 -20q-7 -37 -34 -70t-73 -33q-32 0 -57.5 16t-43.5 32t-34 16q-19 0 -27 -29q-10 -35 -44 -35zM40 347 q0 152 107.5 257.5t265.5 105.5t262.5 -102.5t104.5 -254.5t-107.5 -257.5t-265.5 -105.5t-262.5 102.5t-104.5 254.5zM230 350q0 -79 51 -132t129 -53t129 53t51 132t-51 132t-129 53t-129 -53t-51 -132z" />
<glyph unicode="&#xd6;" horiz-adv-x="820" d="M294 750q-39 0 -64 25t-25 64t26 65t65 26t64 -25t25 -64t-26 -65t-65 -26zM524 750q-39 0 -64 25t-25 64t26 65t65 26t64 -25t25 -64t-26 -65t-65 -26zM40 347q0 152 107.5 257.5t265.5 105.5t262.5 -102.5t104.5 -254.5t-107.5 -257.5t-265.5 -105.5t-262.5 102.5 t-104.5 254.5zM230 350q0 -79 51 -132t129 -53t129 53t51 132t-51 132t-129 53t-129 -53t-51 -132z" />
<glyph unicode="&#xd7;" d="M55 166q0 30 25 55l132 129l-130 128q-27 27 -27 57t19.5 49.5t50.5 19.5q30 0 56 -26l129 -131l130 132q24 25 56 25q30 0 49.5 -19.5t19.5 -49.5q0 -32 -25 -56l-133 -129l135 -131q23 -23 23 -54t-19 -50t-49 -19q-32 0 -57 25l-130 132l-130 -132q-25 -25 -56 -25 t-50 19.5t-19 50.5z" />
<glyph unicode="&#xd8;" horiz-adv-x="820" d="M40 347q0 152 107.5 257.5t265.5 105.5q108 0 196 -52l47 55q19 22 40 22q20 0 33 -13t13 -33q0 -16 -18 -37l-43 -51q99 -102 99 -248q0 -152 -107.5 -257.5t-265.5 -105.5q-109 0 -197 52l-47 -56q-18 -21 -39 -21q-20 0 -33 13t-13 33q0 17 15 35l45 53 q-98 101 -98 248zM225 350q0 -64 32 -111l237 282q-40 19 -84 19q-81 0 -133 -54t-52 -136zM326 179q40 -19 84 -19q81 0 133 54t52 136q0 60 -32 110z" />
<glyph unicode="&#xd9;" horiz-adv-x="740" d="M278 799q-36 23 -36 64q0 30 20 51t49 21q31 0 59 -28l47 -47q25 -25 25 -52t-18 -45t-44 -18q-20 0 -39 13zM587 704q40 0 66.5 -26.5t26.5 -67.5v-317q0 -137 -86.5 -220t-226.5 -83t-223.5 80t-83.5 217v323q0 42 27 69t69 27t69.5 -27t27.5 -69v-315q0 -60 32.5 -95 t87.5 -35t87.5 35t32.5 95v315q0 40 26.5 67t67.5 27z" />
<glyph unicode="&#xda;" horiz-adv-x="740" d="M369 745q-26 0 -44 18t-18 45t25 52l47 47q28 28 59 28q29 0 49 -21t20 -51q0 -41 -36 -64l-63 -41q-20 -13 -39 -13zM587 704q40 0 66.5 -26.5t26.5 -67.5v-317q0 -137 -86.5 -220t-226.5 -83t-223.5 80t-83.5 217v323q0 42 27 69t69 27t69.5 -27t27.5 -69v-315 q0 -60 32.5 -95t87.5 -35t87.5 35t32.5 95v315q0 40 26.5 67t67.5 27z" />
<glyph unicode="&#xdb;" horiz-adv-x="740" d="M257 745q-26 0 -44 18t-18 45q0 33 26 53l42 34q48 40 112 40t112 -40l42 -34q26 -21 26 -53q0 -27 -18 -45t-44 -18q-25 0 -45 16l-74 59l-76 -60q-19 -15 -41 -15zM587 704q40 0 66.5 -26.5t26.5 -67.5v-317q0 -137 -86.5 -220t-226.5 -83t-223.5 80t-83.5 217v323 q0 42 27 69t69 27t69.5 -27t27.5 -69v-315q0 -60 32.5 -95t87.5 -35t87.5 35t32.5 95v315q0 40 26.5 67t67.5 27z" />
<glyph unicode="&#xdc;" horiz-adv-x="740" d="M259 750q-39 0 -64 25t-25 64t26 65t65 26t64 -25t25 -64t-26 -65t-65 -26zM489 750q-39 0 -64 25t-25 64t26 65t65 26t64 -25t25 -64t-26 -65t-65 -26zM587 704q40 0 66.5 -26.5t26.5 -67.5v-317q0 -137 -86.5 -220t-226.5 -83t-223.5 80t-83.5 217v323q0 42 27 69 t69 27t69.5 -27t27.5 -69v-315q0 -60 32.5 -95t87.5 -35t87.5 35t32.5 95v315q0 40 26.5 67t67.5 27z" />
<glyph unicode="&#xdd;" horiz-adv-x="619" d="M251 808q0 27 25 52l47 47q28 28 59 28q29 0 49 -21t20 -51q0 -41 -36 -64l-63 -41q-20 -13 -39 -13q-26 0 -44 18t-18 45zM10 613q0 41 26 66.5t67 25.5q54 0 82 -48l128 -225l128 226q27 47 80 47q39 0 63.5 -24.5t24.5 -64.5q0 -27 -15 -52l-191 -314v-160 q0 -41 -27 -68t-68 -27t-68 27t-27 68v160l-188 309q-15 25 -15 54z" />
<glyph unicode="&#xde;" horiz-adv-x="685" d="M383 600q119 0 190.5 -65.5t71.5 -171.5t-74.5 -174.5t-193.5 -68.5h-117v-30q0 -41 -27 -68t-68 -27t-68 27t-27 68v520q0 41 27 68t68 27t68 -27t27 -68v-10h123zM360 275q44 0 69.5 23t25.5 62t-25.5 62t-69.5 23h-100v-170h100z" />
<glyph unicode="&#xdf;" d="M360 -10q-43 0 -66.5 21t-23.5 55q0 33 22 53q19 18 48 22q75 12 75 74q0 40 -40 62q-15 7 -27 11q-63 18 -63 75q0 42 49 72q41 24 41 60q0 29 -19.5 47t-50.5 18q-34 0 -54.5 -22t-20.5 -60v-393q0 -40 -25 -65t-65 -25t-65 25t-25 65v390q0 106 70 170.5t185 64.5 q112 0 181 -56t69 -144q0 -85 -64 -135q104 -56 104 -170q0 -93 -67.5 -154t-167.5 -61z" />
<glyph unicode="&#xe0;" horiz-adv-x="575" d="M213 619q-36 23 -36 64q0 30 20 51t49 21q31 0 59 -28l47 -47q25 -25 25 -52t-18 -45t-44 -18q-19 0 -39 13zM288 530q112 0 177 -63.5t65 -173.5v-217q0 -36 -22.5 -58.5t-58.5 -22.5q-53 0 -73 44q-56 -49 -149 -49q-91 0 -144 43t-53 114t56 117t147 46q68 0 117 -26 v11q0 39 -28 62t-72 23q-36 0 -74 -16q-20 -9 -39 -9q-31 0 -50 19t-19 49q0 41 42 66q70 41 178 41zM282 100q32 0 52.5 16t20.5 39t-20.5 39t-52.5 16t-52 -15.5t-20 -39.5t20 -39.5t52 -15.5z" />
<glyph unicode="&#xe1;" horiz-adv-x="575" d="M287 565q-26 0 -44 18t-18 45t25 52l47 47q28 28 59 28q29 0 49 -21t20 -51q0 -41 -36 -64l-63 -41q-20 -13 -39 -13zM288 530q112 0 177 -63.5t65 -173.5v-217q0 -36 -22.5 -58.5t-58.5 -22.5q-53 0 -73 44q-56 -49 -149 -49q-91 0 -144 43t-53 114t56 117t147 46 q68 0 117 -26v11q0 39 -28 62t-72 23q-36 0 -74 -16q-20 -9 -39 -9q-31 0 -50 19t-19 49q0 41 42 66q70 41 178 41zM282 100q32 0 52.5 16t20.5 39t-20.5 39t-52.5 16t-52 -15.5t-20 -39.5t20 -39.5t52 -15.5z" />
<glyph unicode="&#xe2;" horiz-adv-x="575" d="M179 565q-26 0 -44 18t-18 45q0 33 26 53l42 34q48 40 112 40t112 -40l42 -34q26 -21 26 -53q0 -27 -18 -45t-44 -18q-25 0 -45 16l-74 59l-76 -60q-19 -15 -41 -15zM288 530q112 0 177 -63.5t65 -173.5v-217q0 -36 -22.5 -58.5t-58.5 -22.5q-53 0 -73 44 q-56 -49 -149 -49q-91 0 -144 43t-53 114t56 117t147 46q68 0 117 -26v11q0 39 -28 62t-72 23q-36 0 -74 -16q-20 -9 -39 -9q-31 0 -50 19t-19 49q0 41 42 66q70 41 178 41zM282 100q32 0 52.5 16t20.5 39t-20.5 39t-52.5 16t-52 -15.5t-20 -39.5t20 -39.5t52 -15.5z" />
<glyph unicode="&#xe3;" horiz-adv-x="575" d="M172 570q-20 0 -32 13.5t-12 33.5q0 8 2 20q7 37 34 70t73 33q33 0 58 -16t43.5 -32t33.5 -16q19 0 27 29q10 35 44 35q20 0 32 -13.5t12 -33.5q0 -8 -2 -20q-7 -37 -34 -70t-73 -33q-32 0 -57.5 16t-43.5 32t-34 16q-19 0 -27 -29q-10 -35 -44 -35zM288 530 q112 0 177 -63.5t65 -173.5v-217q0 -36 -22.5 -58.5t-58.5 -22.5q-53 0 -73 44q-56 -49 -149 -49q-91 0 -144 43t-53 114t56 117t147 46q68 0 117 -26v11q0 39 -28 62t-72 23q-36 0 -74 -16q-20 -9 -39 -9q-31 0 -50 19t-19 49q0 41 42 66q70 41 178 41zM282 100 q32 0 52.5 16t20.5 39t-20.5 39t-52.5 16t-52 -15.5t-20 -39.5t20 -39.5t52 -15.5z" />
<glyph unicode="&#xe4;" horiz-adv-x="575" d="M181 570q-39 0 -64 25t-25 64t26 65t65 26t64 -25t25 -64t-26 -65t-65 -26zM411 570q-39 0 -64 25t-25 64t26 65t65 26t64 -25t25 -64t-26 -65t-65 -26zM288 530q112 0 177 -63.5t65 -173.5v-217q0 -36 -22.5 -58.5t-58.5 -22.5q-53 0 -73 44q-56 -49 -149 -49 q-91 0 -144 43t-53 114t56 117t147 46q68 0 117 -26v11q0 39 -28 62t-72 23q-36 0 -74 -16q-20 -9 -39 -9q-31 0 -50 19t-19 49q0 41 42 66q70 41 178 41zM282 100q32 0 52.5 16t20.5 39t-20.5 39t-52.5 16t-52 -15.5t-20 -39.5t20 -39.5t52 -15.5z" />
<glyph unicode="&#xe5;" horiz-adv-x="575" d="M297 560q-48 0 -79 29.5t-31 75.5t31 75.5t79 29.5t79 -29.5t31 -75.5t-31 -75.5t-79 -29.5zM297 707q-19 0 -31 -12t-12 -30t12 -30.5t31 -12.5t30.5 12.5t11.5 30.5t-11.5 30t-30.5 12zM288 530q112 0 177 -63.5t65 -173.5v-217q0 -36 -22.5 -58.5t-58.5 -22.5 q-53 0 -73 44q-56 -49 -149 -49q-91 0 -144 43t-53 114t56 117t147 46q68 0 117 -26v11q0 39 -28 62t-72 23q-36 0 -74 -16q-20 -9 -39 -9q-31 0 -50 19t-19 49q0 41 42 66q70 41 178 41zM282 100q32 0 52.5 16t20.5 39t-20.5 39t-52.5 16t-52 -15.5t-20 -39.5t20 -39.5 t52 -15.5z" />
<glyph unicode="&#xe6;" horiz-adv-x="920" d="M252 -10q-104 0 -163 43t-59 114t56 117t147 46q68 0 117 -26v11q0 39 -28 62t-72 23q-40 0 -77 -16q-20 -9 -36 -9q-31 0 -50 19t-19 49q0 41 42 66q70 41 178 41q107 0 168 -72q77 72 177 72q109 0 185.5 -72t76.5 -165q0 -33 -19.5 -53t-52.5 -20h-289 q9 -34 38.5 -54.5t72.5 -20.5q45 0 86 23q25 14 47 14q33 0 53.5 -20t20.5 -53q0 -39 -42 -70q-65 -49 -178 -49q-112 0 -187 78q-64 -78 -193 -78zM532 325h191q-6 31 -32.5 53t-60.5 22q-36 0 -63 -21t-35 -54zM282 100q32 0 52.5 16t20.5 39t-20.5 39t-52.5 16t-52 -15.5 t-20 -39.5t20 -39.5t52 -15.5z" />
<glyph unicode="&#xe7;" horiz-adv-x="528" d="M427 189q36 0 58.5 -23t22.5 -59q0 -39 -37 -69q-38 -28 -96 -42q9 -23 9 -46q0 -66 -49.5 -105.5t-115.5 -39.5q-39 0 -72 13q-42 16 -42 54q0 24 15 39t38 15q9 0 23 -3t21 -3q26 0 41.5 12.5t15.5 35.5q0 18 -12 28q-97 20 -157 91.5t-60 169.5q0 115 83 194t205 79 q82 0 139 -35q49 -30 49 -78q0 -37 -23 -60.5t-60 -23.5q-22 0 -52 17q-26 15 -56 15q-45 0 -75 -30.5t-30 -74.5t30 -74.5t75 -30.5q33 0 61 17t51 17z" />
<glyph unicode="&#xe8;" horiz-adv-x="600" d="M392 628q0 -27 -18 -45t-44 -18q-20 0 -39 13l-63 41q-36 23 -36 64q0 30 20 51t49 21q31 0 59 -28l47 -47q25 -25 25 -52zM30 257q0 115 81.5 194t201.5 79q109 0 185.5 -72t76.5 -165q0 -33 -19.5 -53t-52.5 -20h-289q9 -34 38.5 -54.5t72.5 -20.5q45 0 86 23 q25 14 47 14q33 0 53.5 -20t20.5 -53q0 -39 -42 -70q-65 -49 -178 -49q-122 0 -202 76t-80 191zM212 325h191q-6 31 -32.5 53t-60.5 22q-36 0 -63 -21t-35 -54z" />
<glyph unicode="&#xe9;" horiz-adv-x="600" d="M267 628q0 27 25 52l47 47q28 28 59 28q29 0 49 -21t20 -51q0 -41 -36 -64l-63 -41q-20 -13 -39 -13q-26 0 -44 18t-18 45zM30 257q0 115 81.5 194t201.5 79q109 0 185.5 -72t76.5 -165q0 -33 -19.5 -53t-52.5 -20h-289q9 -34 38.5 -54.5t72.5 -20.5q45 0 86 23 q25 14 47 14q33 0 53.5 -20t20.5 -53q0 -39 -42 -70q-65 -49 -178 -49q-122 0 -202 76t-80 191zM212 325h191q-6 31 -32.5 53t-60.5 22q-36 0 -63 -21t-35 -54z" />
<glyph unicode="&#xea;" horiz-adv-x="600" d="M490 628q0 -27 -18 -45t-44 -18q-25 0 -45 16l-74 59l-76 -60q-19 -15 -41 -15q-26 0 -44 18t-18 45q0 33 26 53l42 34q48 40 112 40t112 -40l42 -34q26 -21 26 -53zM30 257q0 115 81.5 194t201.5 79q109 0 185.5 -72t76.5 -165q0 -33 -19.5 -53t-52.5 -20h-289 q9 -34 38.5 -54.5t72.5 -20.5q45 0 86 23q25 14 47 14q33 0 53.5 -20t20.5 -53q0 -39 -42 -70q-65 -49 -178 -49q-122 0 -202 76t-80 191zM212 325h191q-6 31 -32.5 53t-60.5 22q-36 0 -63 -21t-35 -54z" />
<glyph unicode="&#xeb;" horiz-adv-x="600" d="M194 570q-39 0 -64 25t-25 64t26 65t65 26t64 -25t25 -64t-26 -65t-65 -26zM424 570q-39 0 -64 25t-25 64t26 65t65 26t64 -25t25 -64t-26 -65t-65 -26zM30 257q0 115 81.5 194t201.5 79q109 0 185.5 -72t76.5 -165q0 -33 -19.5 -53t-52.5 -20h-289q9 -34 38.5 -54.5 t72.5 -20.5q45 0 86 23q25 14 47 14q33 0 53.5 -20t20.5 -53q0 -39 -42 -70q-65 -49 -178 -49q-122 0 -202 76t-80 191zM212 325h191q-6 31 -32.5 53t-60.5 22q-36 0 -63 -21t-35 -54z" />
<glyph unicode="&#xec;" horiz-adv-x="292" d="M153 565q-19 0 -39 13l-63 41q-36 23 -36 64q0 30 20 51t49 21q31 0 59 -28l47 -47q25 -25 25 -52t-18 -45t-44 -18zM146 525q40 0 65.5 -25.5t25.5 -65.5v-347q0 -40 -25.5 -66t-65.5 -26t-65.5 26t-25.5 66v347q0 40 25.5 65.5t65.5 25.5z" />
<glyph unicode="&#xed;" horiz-adv-x="292" d="M213 755q29 0 49 -21t20 -51q0 -41 -36 -64l-63 -41q-19 -13 -39 -13q-26 0 -44 18t-18 45t25 52l47 47q28 28 59 28zM146 525q40 0 65.5 -25.5t25.5 -65.5v-347q0 -40 -25.5 -66t-65.5 -26t-65.5 26t-25.5 66v347q0 40 25.5 65.5t65.5 25.5z" />
<glyph unicode="&#xee;" horiz-adv-x="292" d="M300 681q26 -21 26 -53q0 -27 -18 -45t-44 -18q-25 0 -45 16l-74 59l-76 -60q-19 -15 -41 -15q-26 0 -44 18t-18 45q0 33 26 53l42 34q48 40 112 40t112 -40zM146 525q40 0 65.5 -25.5t25.5 -65.5v-347q0 -40 -25.5 -66t-65.5 -26t-65.5 26t-25.5 66v347q0 40 25.5 65.5 t65.5 25.5z" />
<glyph unicode="&#xef;" horiz-adv-x="292" d="M121 661q0 -39 -26 -65t-65 -26t-64 25t-25 64t26 65t65 26t64 -25t25 -64zM262 750q39 0 64 -25t25 -64t-26 -65t-65 -26t-64 25t-25 64t26 65t65 26zM146 525q40 0 65.5 -25.5t25.5 -65.5v-347q0 -40 -25.5 -66t-65.5 -26t-65.5 26t-25.5 66v347q0 40 25.5 65.5 t65.5 25.5z" />
<glyph unicode="&#xf0;" horiz-adv-x="630" d="M528 468q72 -101 72 -208q0 -115 -86.5 -192.5t-201.5 -77.5q-120 0 -201 72.5t-81 194.5q0 103 74.5 173t173.5 70q15 0 41 -6l-44 59l-93 -20q-12 -3 -19 -3q-19 0 -31.5 12t-12.5 32q0 36 38 43l66 14q-4 12 -4 25q0 35 22 57t57 22q43 0 74 -45l16 -22l111 24 q10 3 19 3q19 0 31 -12t12 -31q0 -37 -37 -44l-82 -18zM315 155q45 0 75 30.5t30 74.5t-30 74.5t-75 30.5t-75 -30.5t-30 -74.5t30 -74.5t75 -30.5z" />
<glyph unicode="&#xf1;" horiz-adv-x="615" d="M172 570q-20 0 -32 13.5t-12 33.5q0 8 2 20q7 37 34 70t73 33q33 0 58 -16t43.5 -32t33.5 -16q19 0 27 29q10 35 44 35q20 0 32 -13.5t12 -33.5q0 -8 -2 -20q-7 -37 -34 -70t-73 -33q-32 0 -57.5 16t-43.5 32t-34 16q-19 0 -27 -29q-10 -35 -44 -35zM378 530 q85 0 138.5 -54.5t53.5 -147.5v-243q0 -40 -25 -65t-65 -25t-65 25t-25 65v185q0 47 -21 71t-57 24q-37 0 -59.5 -24t-22.5 -71v-185q0 -40 -25 -65t-65 -25t-65 25t-25 65v356q0 37 23.5 60.5t60.5 23.5q34 0 57.5 -21t26.5 -54q26 39 68.5 59.5t91.5 20.5z" />
<glyph unicode="&#xf2;" horiz-adv-x="630" d="M385 628q0 -27 -18 -45t-44 -18q-19 0 -39 13l-63 41q-36 23 -36 64q0 30 20 51t49 21q31 0 59 -28l47 -47q25 -25 25 -52zM30 257q0 115 83 194t205 79t202 -76t80 -191t-83 -194t-205 -79t-202 76t-80 191zM210 260q0 -44 30 -74.5t75 -30.5t75 30.5t30 74.5t-30 74.5 t-75 30.5t-75 -30.5t-30 -74.5z" />
<glyph unicode="&#xf3;" horiz-adv-x="630" d="M245 628q0 27 25 52l47 47q28 28 59 28q29 0 49 -21t20 -51q0 -41 -36 -64l-63 -41q-20 -13 -39 -13q-26 0 -44 18t-18 45zM30 257q0 115 83 194t205 79t202 -76t80 -191t-83 -194t-205 -79t-202 76t-80 191zM210 260q0 -44 30 -74.5t75 -30.5t75 30.5t30 74.5t-30 74.5 t-75 30.5t-75 -30.5t-30 -74.5z" />
<glyph unicode="&#xf4;" horiz-adv-x="630" d="M495 628q0 -27 -18 -45t-44 -18q-25 0 -45 16l-74 59l-76 -60q-19 -15 -41 -15q-26 0 -44 18t-18 45q0 33 26 53l42 34q48 40 112 40t112 -40l42 -34q26 -21 26 -53zM30 257q0 115 83 194t205 79t202 -76t80 -191t-83 -194t-205 -79t-202 76t-80 191zM210 260 q0 -44 30 -74.5t75 -30.5t75 30.5t30 74.5t-30 74.5t-75 30.5t-75 -30.5t-30 -74.5z" />
<glyph unicode="&#xf5;" horiz-adv-x="630" d="M179 570q-20 0 -32 13.5t-12 33.5q0 8 2 20q7 37 34 70t73 33q33 0 58 -16t43.5 -32t33.5 -16q19 0 27 29q10 35 44 35q20 0 32 -13.5t12 -33.5q0 -8 -2 -20q-7 -37 -34 -70t-73 -33q-32 0 -57.5 16t-43.5 32t-34 16q-19 0 -27 -29q-10 -35 -44 -35zM30 257q0 115 83 194 t205 79t202 -76t80 -191t-83 -194t-205 -79t-202 76t-80 191zM210 260q0 -44 30 -74.5t75 -30.5t75 30.5t30 74.5t-30 74.5t-75 30.5t-75 -30.5t-30 -74.5z" />
<glyph unicode="&#xf6;" horiz-adv-x="630" d="M199 570q-39 0 -64 25t-25 64t26 65t65 26t64 -25t25 -64t-26 -65t-65 -26zM429 570q-39 0 -64 25t-25 64t26 65t65 26t64 -25t25 -64t-26 -65t-65 -26zM30 257q0 115 83 194t205 79t202 -76t80 -191t-83 -194t-205 -79t-202 76t-80 191zM210 260q0 -44 30 -74.5 t75 -30.5t75 30.5t30 74.5t-30 74.5t-75 30.5t-75 -30.5t-30 -74.5z" />
<glyph unicode="&#xf7;" d="M310 475q-41 0 -70 29t-29 70t29 70t70 29t70 -29t29 -70t-29 -70t-70 -29zM501 430q33 0 53.5 -21t20.5 -54t-20.5 -54t-53.5 -21h-381q-34 0 -54.5 21t-20.5 54t20.5 54t54.5 21h381zM310 235q41 0 70 -29t29 -70t-29 -70t-70 -29t-70 29t-29 70t29 70t70 29z" />
<glyph unicode="&#xf8;" horiz-adv-x="630" d="M116 -35q-19 0 -31 12t-12 31q0 17 14 34l21 26q-78 75 -78 189q0 115 83 194t205 79q70 0 133 -29l27 34q16 20 37 20q18 0 30 -12t12 -31q0 -17 -13 -33l-22 -27q78 -76 78 -189q0 -115 -83 -194t-205 -79q-73 0 -133 29l-25 -31q-18 -23 -38 -23zM211 198l140 177 q-18 5 -36 5q-52 0 -86 -34.5t-34 -85.5q0 -36 16 -62zM315 140q52 0 86 34.5t34 85.5q0 32 -16 61l-140 -176q18 -5 36 -5z" />
<glyph unicode="&#xf9;" horiz-adv-x="615" d="M203 619q-36 23 -36 64q0 30 20 51t49 21q31 0 59 -28l47 -47q25 -25 25 -52t-18 -45t-44 -18q-19 0 -39 13zM475 525q40 0 65 -25t25 -65v-356q0 -37 -23.5 -60.5t-60.5 -23.5q-34 0 -57.5 21t-26.5 54q-26 -39 -68.5 -59.5t-91.5 -20.5q-85 0 -138.5 54.5t-53.5 147.5 v243q0 40 25 65t65 25t65 -25t25 -65v-185q0 -47 21 -71t57 -24q37 0 59.5 24t22.5 71v185q0 40 25 65t65 25z" />
<glyph unicode="&#xfa;" horiz-adv-x="615" d="M305 565q-26 0 -44 18t-18 45t25 52l47 47q28 28 59 28q29 0 49 -21t20 -51q0 -41 -36 -64l-63 -41q-20 -13 -39 -13zM475 525q40 0 65 -25t25 -65v-356q0 -37 -23.5 -60.5t-60.5 -23.5q-34 0 -57.5 21t-26.5 54q-26 -39 -68.5 -59.5t-91.5 -20.5q-85 0 -138.5 54.5 t-53.5 147.5v243q0 40 25 65t65 25t65 -25t25 -65v-185q0 -47 21 -71t57 -24q37 0 59.5 24t22.5 71v185q0 40 25 65t65 25z" />
<glyph unicode="&#xfb;" horiz-adv-x="615" d="M189 565q-26 0 -44 18t-18 45q0 33 26 53l42 34q48 40 112 40t112 -40l42 -34q26 -21 26 -53q0 -27 -18 -45t-44 -18q-25 0 -45 16l-74 59l-76 -60q-19 -15 -41 -15zM475 525q40 0 65 -25t25 -65v-356q0 -37 -23.5 -60.5t-60.5 -23.5q-34 0 -57.5 21t-26.5 54 q-26 -39 -68.5 -59.5t-91.5 -20.5q-85 0 -138.5 54.5t-53.5 147.5v243q0 40 25 65t65 25t65 -25t25 -65v-185q0 -47 21 -71t57 -24q37 0 59.5 24t22.5 71v185q0 40 25 65t65 25z" />
<glyph unicode="&#xfc;" horiz-adv-x="615" d="M191 570q-39 0 -64 25t-25 64t26 65t65 26t64 -25t25 -64t-26 -65t-65 -26zM421 570q-39 0 -64 25t-25 64t26 65t65 26t64 -25t25 -64t-26 -65t-65 -26zM475 525q40 0 65 -25t25 -65v-356q0 -37 -23.5 -60.5t-60.5 -23.5q-34 0 -57.5 21t-26.5 54q-26 -39 -68.5 -59.5 t-91.5 -20.5q-85 0 -138.5 54.5t-53.5 147.5v243q0 40 25 65t65 25t65 -25t25 -65v-185q0 -47 21 -71t57 -24q37 0 59.5 24t22.5 71v185q0 40 25 65t65 25z" />
<glyph unicode="&#xfd;" horiz-adv-x="536" d="M199 628q0 27 25 52l47 47q28 28 59 28q29 0 49 -21t20 -51q0 -41 -36 -64l-63 -41q-20 -13 -39 -13q-26 0 -44 18t-18 45zM0 -78q0 34 21 54.5t54 20.5q10 0 28.5 -3.5t26.5 -3.5q16 0 27.5 5t14.5 10l4 5l-154 375q-12 29 -12 49q0 40 26 65.5t67 25.5q63 0 88 -74 l80 -238l82 245q23 67 85 67q38 0 63 -24t25 -61q0 -23 -10 -44l-167 -401q-36 -85 -85.5 -125t-129.5 -40q-42 0 -82 18q-52 24 -52 74z" />
<glyph unicode="&#xfe;" horiz-adv-x="645" d="M368 530q102 0 174.5 -77t72.5 -190t-75 -193t-178 -80q-78 0 -132 49v-114q0 -40 -25 -65t-65 -25t-65 25t-25 65v690q0 40 25 65t65 25t65 -25t25 -65v-141q58 56 138 56zM330 155q45 0 75 30.5t30 74.5t-30 74.5t-75 30.5t-75 -30.5t-30 -74.5t30 -74.5t75 -30.5z" />
<glyph unicode="&#xff;" horiz-adv-x="536" d="M155 570q-39 0 -64 25t-25 64t26 65t65 26t64 -25t25 -64t-26 -65t-65 -26zM385 570q-39 0 -64 25t-25 64t26 65t65 26t64 -25t25 -64t-26 -65t-65 -26zM0 -78q0 34 21 54.5t54 20.5q10 0 28.5 -3.5t26.5 -3.5q16 0 27.5 5t14.5 10l4 5l-154 375q-12 29 -12 49 q0 40 26 65.5t67 25.5q63 0 88 -74l80 -238l82 245q23 67 85 67q38 0 63 -24t25 -61q0 -23 -10 -44l-167 -401q-36 -85 -85.5 -125t-129.5 -40q-42 0 -82 18q-52 24 -52 74z" />
<glyph unicode="&#x152;" horiz-adv-x="1060" d="M427 0q-169 0 -278 98.5t-109 248.5t112 251.5t281 101.5h500q36 0 59 -23t23 -59q0 -37 -23 -60t-59 -23h-263v-100h218q34 0 55.5 -21.5t21.5 -55.5q0 -35 -21.5 -56.5t-55.5 -21.5h-218v-115h273q36 0 59 -23t23 -59q0 -37 -23 -60t-59 -23h-516zM425 165h55v370h-55 q-85 0 -140 -52t-55 -133t55 -133t140 -52z" />
<glyph unicode="&#x153;" horiz-adv-x="990" d="M30 257q0 115 83 194t205 79q117 0 193 -84q76 84 187 84q109 0 185.5 -72t76.5 -165q0 -33 -19.5 -53t-52.5 -20h-289q9 -34 38.5 -54.5t72.5 -20.5q45 0 86 23q24 14 47 14q33 0 53.5 -20t20.5 -53q0 -39 -42 -70q-65 -49 -178 -49q-115 0 -191 84q-78 -84 -194 -84 q-122 0 -202 76t-80 191zM597 325h191q-6 31 -32.5 53t-60.5 22q-36 0 -63 -21t-35 -54zM210 260q0 -44 30 -74.5t75 -30.5t75 30.5t30 74.5t-30 74.5t-75 30.5t-75 -30.5t-30 -74.5z" />
<glyph unicode="&#x178;" horiz-adv-x="619" d="M197 750q-39 0 -64 25t-25 64t26 65t65 26t64 -25t25 -64t-26 -65t-65 -26zM427 750q-39 0 -64 25t-25 64t26 65t65 26t64 -25t25 -64t-26 -65t-65 -26zM10 613q0 41 26 66.5t67 25.5q54 0 82 -48l128 -225l128 226q27 47 80 47q39 0 63.5 -24.5t24.5 -64.5 q0 -27 -15 -52l-191 -314v-160q0 -41 -27 -68t-68 -27t-68 27t-27 68v160l-188 309q-15 25 -15 54z" />
<glyph unicode="&#x2c6;" horiz-adv-x="530" d="M445 628q0 -27 -18 -45t-44 -18q-25 0 -45 16l-74 59l-76 -60q-19 -15 -41 -15q-26 0 -44 18t-18 45q0 33 26 53l42 34q48 40 112 40t112 -40l42 -34q26 -21 26 -53z" />
<glyph unicode="&#x2dc;" horiz-adv-x="467" d="M98 570q-20 0 -32 13.5t-12 33.5q0 8 2 20q7 37 34 70t73 33q33 0 58 -16t43.5 -32t33.5 -16q19 0 27 29q10 35 44 35q20 0 32 -13.5t12 -33.5q0 -8 -2 -20q-7 -37 -34 -70t-73 -33q-32 0 -57.5 16t-43.5 32t-34 16q-19 0 -27 -29q-10 -35 -44 -35z" />
<glyph unicode="&#x2000;" horiz-adv-x="475" />
<glyph unicode="&#x2001;" horiz-adv-x="950" />
<glyph unicode="&#x2002;" horiz-adv-x="475" />
<glyph unicode="&#x2003;" horiz-adv-x="950" />
<glyph unicode="&#x2004;" horiz-adv-x="316" />
<glyph unicode="&#x2005;" horiz-adv-x="237" />
<glyph unicode="&#x2006;" horiz-adv-x="158" />
<glyph unicode="&#x2007;" horiz-adv-x="158" />
<glyph unicode="&#x2008;" horiz-adv-x="118" />
<glyph unicode="&#x2009;" horiz-adv-x="190" />
<glyph unicode="&#x200a;" horiz-adv-x="52" />
<glyph unicode="&#x2010;" horiz-adv-x="420" d="M295 435q35 0 57.5 -22.5t22.5 -57.5t-22.5 -57.5t-57.5 -22.5h-170q-35 0 -57.5 22.5t-22.5 57.5t22.5 57.5t57.5 22.5h170z" />
<glyph unicode="&#x2011;" horiz-adv-x="420" d="M295 435q35 0 57.5 -22.5t22.5 -57.5t-22.5 -57.5t-57.5 -22.5h-170q-35 0 -57.5 22.5t-22.5 57.5t22.5 57.5t57.5 22.5h170z" />
<glyph unicode="&#x2012;" horiz-adv-x="420" d="M295 435q35 0 57.5 -22.5t22.5 -57.5t-22.5 -57.5t-57.5 -22.5h-170q-35 0 -57.5 22.5t-22.5 57.5t22.5 57.5t57.5 22.5h170z" />
<glyph unicode="&#x2013;" horiz-adv-x="570" d="M445 435q35 0 57.5 -22.5t22.5 -57.5t-22.5 -57.5t-57.5 -22.5h-320q-35 0 -57.5 22.5t-22.5 57.5t22.5 57.5t57.5 22.5h320z" />
<glyph unicode="&#x2014;" horiz-adv-x="900" d="M775 435q35 0 57.5 -22.5t22.5 -57.5t-22.5 -57.5t-57.5 -22.5h-650q-35 0 -57.5 22.5t-22.5 57.5t22.5 57.5t57.5 22.5h650z" />
<glyph unicode="&#x2018;" horiz-adv-x="300" d="M253 632q0 -25 -16 -180q-4 -39 -27.5 -63t-59.5 -24q-38 0 -62.5 24t-24.5 63q0 19 43 189q17 64 73 64q32 0 53 -20.5t21 -52.5z" />
<glyph unicode="&#x2019;" horiz-adv-x="300" d="M47 438q0 25 16 180q4 39 27.5 63t59.5 24q38 0 62.5 -24t24.5 -63q0 -19 -43 -189q-17 -64 -73 -64q-32 0 -53 20.5t-21 52.5z" />
<glyph unicode="&#x201a;" horiz-adv-x="300" d="M47 -62q0 25 16 180q4 39 27.5 63t59.5 24q38 0 62.5 -24t24.5 -63q0 -19 -43 -189q-17 -64 -73 -64q-32 0 -53 20.5t-21 52.5z" />
<glyph unicode="&#x201c;" horiz-adv-x="550" d="M253 632q0 -25 -16 -180q-4 -39 -27.5 -63t-59.5 -24q-38 0 -62.5 24t-24.5 63q0 19 43 189q17 64 73 64q32 0 53 -20.5t21 -52.5zM503 632q0 -25 -16 -180q-4 -39 -27.5 -63t-59.5 -24q-38 0 -62.5 24t-24.5 63q0 19 43 189q17 64 73 64q32 0 53 -20.5t21 -52.5z" />
<glyph unicode="&#x201d;" horiz-adv-x="550" d="M47 438q0 25 16 180q4 39 27.5 63t59.5 24q38 0 62.5 -24t24.5 -63q0 -19 -43 -189q-17 -64 -73 -64q-32 0 -53 20.5t-21 52.5zM297 438q0 25 16 180q4 39 27.5 63t59.5 24q38 0 62.5 -24t24.5 -63q0 -19 -43 -189q-17 -64 -73 -64q-32 0 -53 20.5t-21 52.5z" />
<glyph unicode="&#x201e;" horiz-adv-x="550" d="M47 -62q0 25 16 180q4 39 27.5 63t59.5 24q38 0 62.5 -24t24.5 -63q0 -19 -43 -189q-17 -64 -73 -64q-32 0 -53 20.5t-21 52.5zM297 -62q0 25 16 180q4 39 27.5 63t59.5 24q38 0 62.5 -24t24.5 -63q0 -19 -43 -189q-17 -64 -73 -64q-32 0 -53 20.5t-21 52.5z" />
<glyph unicode="&#x2022;" horiz-adv-x="440" d="M50 349q0 73 49 122t122 49t121 -48t48 -121t-49 -122t-122 -49t-121 48t-48 121z" />
<glyph unicode="&#x202f;" horiz-adv-x="190" />
<glyph unicode="&#x2039;" horiz-adv-x="428" d="M50 350q0 31 26 55l184 176q23 21 51 21q29 0 48 -18.5t19 -48.5q0 -27 -18 -47l-124 -136l115 -126q27 -29 27 -57q0 -30 -19.5 -49t-49.5 -19q-29 0 -54 23l-179 171q-26 24 -26 55z" />
<glyph unicode="&#x203a;" horiz-adv-x="428" d="M378 353q0 -31 -26 -55l-184 -176q-23 -21 -51 -21q-29 0 -48 18.5t-19 48.5q0 27 18 47l124 136l-115 126q-27 29 -27 57q0 30 19.5 49t49.5 19q29 0 54 -23l179 -171q26 -24 26 -55z" />
<glyph unicode="&#x205f;" horiz-adv-x="237" />
<glyph unicode="&#x20ac;" horiz-adv-x="615" d="M25 280q0 20 12.5 32.5t32.5 12.5h40v50h-40q-20 0 -32.5 12.5t-12.5 32.5t12.5 32.5t32.5 12.5h40v1q3 113 78.5 178.5t189.5 65.5q103 0 174 -65q33 -30 33 -70q0 -35 -21.5 -56t-54.5 -21q-32 0 -63 26q-30 26 -76 26q-38 0 -61.5 -23.5t-23.5 -60.5v-1h195 q20 0 32.5 -12.5t12.5 -32.5t-12.5 -32.5t-32.5 -12.5h-195v-50h175q20 0 32.5 -12.5t12.5 -32.5t-12.5 -32.5t-32.5 -12.5h-175v-1q0 -37 23.5 -60.5t61.5 -23.5q43 0 75 24q39 30 65 30q33 0 54 -21.5t21 -55.5q0 -38 -29 -67q-70 -70 -184 -70q-116 0 -188.5 64.5 t-73.5 179.5v1h-40q-20 0 -32.5 12.5t-12.5 32.5z" />
<glyph unicode="&#x2122;" horiz-adv-x="793" d="M371 428v214q0 28 17.5 45.5t44.5 17.5q36 0 58 -40l67 -119l69 122q21 37 58 37q26 0 42 -16.5t16 -44.5v-215q0 -22 -13 -35.5t-35 -13.5t-35.5 13.5t-13.5 35.5v118l-43 -75q-18 -34 -47 -34q-27 0 -46 34l-44 77v-121q0 -22 -13 -35t-34 -13q-22 0 -35 13t-13 35z M45 656q0 20 12.5 32t32.5 12h196q20 0 32 -12t12 -32t-12 -32.5t-32 -12.5h-48v-181q0 -22 -14 -36t-36 -14t-36 14t-14 36v181h-48q-20 0 -32.5 12.5t-12.5 32.5z" />
<glyph unicode="&#x25fc;" horiz-adv-x="525" d="M0 525h525v-525h-525v525z" />
<glyph unicode="&#xfb01;" horiz-adv-x="737" d="M591 560q-46 0 -75.5 28t-29.5 72t29.5 72t75.5 28t75.5 -28t29.5 -72t-29.5 -72t-75.5 -28zM350 565q-60 0 -60 -55v-20h67q32 0 52.5 -20t20.5 -52q0 -33 -20.5 -53t-52.5 -20h-67v-260q0 -40 -25 -65t-65 -25t-65 25t-25 65v260h-22q-32 0 -52.5 20t-20.5 53 q0 32 20.5 52t52.5 20h22v35q0 86 49.5 135.5t135.5 49.5q50 0 80 -8q65 -17 65 -68q0 -31 -19 -50.5t-50 -19.5q-3 0 -10 0.5t-11 0.5zM591 525q40 0 65.5 -25.5t25.5 -65.5v-347q0 -40 -25.5 -66t-65.5 -26t-65.5 26t-25.5 66v347q0 40 25.5 65.5t65.5 25.5z" />
<glyph unicode="&#xfb02;" horiz-adv-x="737" d="M350 565q-60 0 -60 -55v-20h67q32 0 52.5 -20t20.5 -52q0 -33 -20.5 -53t-52.5 -20h-67v-260q0 -40 -25 -65t-65 -25t-65 25t-25 65v260h-22q-32 0 -52.5 20t-20.5 53q0 32 20.5 52t52.5 20h22v35q0 86 49.5 135.5t135.5 49.5q50 0 80 -8q65 -17 65 -68q0 -31 -19 -50.5 t-50 -19.5q-3 0 -10 0.5t-11 0.5zM591 705q40 0 65.5 -25.5t25.5 -65.5v-527q0 -40 -25.5 -66t-65.5 -26t-65.5 26t-25.5 66v527q0 40 25.5 65.5t65.5 25.5z" />
</font>
</defs>
</svg>
